<?xml version="1.0" encoding="utf-8"?>
<!-- Generator: Adobe Illustrator 22.1.0, SVG Export Plug-In . SVG Version: 6.00 Build 0)  -->
<svg version="1.1" id="Layer_1" xmlns="http://www.w3.org/2000/svg" xmlns:xlink="http://www.w3.org/1999/xlink" x="0px" y="0px"
	 viewBox="0 0 88 88" style="enable-background:new 0 0 88 88;" xml:space="preserve">
<style type="text/css">
	.st0{fill:#81D2EB;}
	.st1{fill:#E1F5FA;}
	.st2{fill:#FFFFFF;}
	.st3{fill:#00B7E5;}
</style>
<circle class="st0" cx="44" cy="44" r="44"/>
<polygon class="st1" points="56.8,21.6 44,28 31.2,21.6 18.4,28 18.4,69.6 31.2,63.2 44,69.6 56.8,63.2 69.6,69.6 69.6,28 "/>
<polygon class="st2" points="18.4,69.6 31.2,63.2 31.2,21.6 18.4,28 "/>
<polygon class="st2" points="44,69.6 56.8,63.2 56.8,21.6 44,28 "/>
<path class="st3" d="M22.2,56.8c-0.4-0.1-0.7-0.6-0.5-1c0,0,0.2-0.6,0.5-1.5c0.1-0.4,0.6-0.6,1-0.5c0.4,0.1,0.6,0.6,0.5,1
	c-0.3,0.9-0.5,1.5-0.5,1.5C23,56.7,22.6,56.9,22.2,56.8z"/>
<path class="st3" d="M32.9,36.3c-0.2-0.4-0.1-0.9,0.3-1.1c1.1-0.7,2.2-1,3.5-0.8c0.4,0.1,0.7,0.5,0.7,0.9c-0.1,0.4-0.5,0.7-0.9,0.7
	c-0.9-0.1-1.7,0.1-2.4,0.6C33.6,36.8,33.1,36.7,32.9,36.3z M40.5,39.5c-0.6-1-1.2-1.7-1.8-2.3c-0.3-0.3-0.3-0.8,0-1.1
	c0.3-0.3,0.8-0.3,1.1,0c0.7,0.7,1.4,1.5,2,2.6c0.2,0.4,0.1,0.9-0.3,1.1C41.2,40,40.7,39.9,40.5,39.5z M28.9,41.1
	c-0.4-0.2-0.5-0.7-0.2-1.1c0.7-1,1.3-1.8,1.9-2.6c0.3-0.3,0.8-0.4,1.1-0.1c0.3,0.3,0.4,0.8,0.1,1.1c-0.6,0.7-1.2,1.5-1.8,2.4
	C29.8,41.2,29.3,41.3,28.9,41.1z M43.2,45c-0.6-1.2-0.9-2-1.3-2.8c-0.2-0.4,0-0.9,0.4-1.1c0.4-0.2,0.9,0,1.1,0.4
	c0.4,0.8,0.8,1.6,1.3,2.8c0.2,0.4,0,0.9-0.4,1.1C43.8,45.6,43.3,45.4,43.2,45z M26,46.6c-0.4-0.2-0.6-0.7-0.4-1.1
	c0.5-1,1-1.9,1.4-2.8c0.2-0.4,0.7-0.5,1.1-0.3c0.4,0.2,0.5,0.7,0.3,1.1c-0.5,0.8-0.9,1.8-1.4,2.7C26.9,46.6,26.4,46.8,26,46.6z
	 M58.6,47.8c-0.4-0.2-0.5-0.7-0.2-1.1c0.5-0.8,1-1.7,1.5-2.6c0.2-0.4,0.7-0.6,1.1-0.4c0.4,0.2,0.6,0.7,0.4,1.1c-0.5,1-1,1.9-1.6,2.8
	C59.5,47.9,59,48,58.6,47.8z M46.2,50.6c-0.5-0.7-1.1-1.6-1.7-2.8c-0.2-0.4,0-0.9,0.3-1.1c0.4-0.2,0.9,0,1.1,0.3
	c0.5,1,1,1.9,1.5,2.6c0.3,0.4,0.2,0.9-0.2,1.1C47,51,46.4,50.9,46.2,50.6z M23.7,52.3c-0.4-0.2-0.6-0.6-0.5-1c0.4-1,0.8-2,1.2-2.9
	c0.2-0.4,0.6-0.6,1.1-0.4c0.4,0.2,0.6,0.6,0.4,1.1c-0.4,0.9-0.8,1.9-1.1,2.9C24.5,52.3,24.1,52.5,23.7,52.3z M54.2,52.1
	c-0.2-0.4-0.1-0.9,0.2-1.1c0.7-0.5,1.5-1.1,2.2-1.9c0.3-0.3,0.8-0.4,1.1-0.1c0.3,0.3,0.4,0.8,0.1,1.1c-0.8,0.9-1.6,1.6-2.5,2.2
	C55,52.5,54.5,52.4,54.2,52.1z M48.7,52.9c-0.4-0.2-0.5-0.7-0.3-1.1c0.2-0.4,0.7-0.5,1.1-0.3c0.8,0.4,1.6,0.5,2.5,0.4
	c0.4-0.1,0.8,0.2,0.9,0.7c0.1,0.4-0.2,0.8-0.7,0.9C50.9,53.7,49.8,53.6,48.7,52.9z"/>
<path class="st3" d="M61.6,42.2c-0.4-0.2-0.6-0.6-0.5-1c0.3-0.9,0.5-1.4,0.5-1.5c0.1-0.4,0.6-0.7,1-0.5c0.4,0.1,0.7,0.6,0.5,1
	c0,0-0.2,0.6-0.6,1.6C62.4,42.2,62,42.4,61.6,42.2z"/>
<path class="st3" d="M66.2,36.2l-1.8-1.8l1.8-1.8c0.3-0.3,0.3-0.8,0-1.1c-0.3-0.3-0.8-0.3-1.1,0l-1.8,1.8l-1.8-1.8
	c-0.3-0.3-0.8-0.3-1.1,0c-0.3,0.3-0.3,0.8,0,1.1l1.8,1.8l-1.8,1.8c-0.3,0.3-0.3,0.8,0,1.1c0.3,0.3,0.8,0.3,1.1,0l1.8-1.8l1.8,1.8
	c0.3,0.3,0.8,0.3,1.1,0C66.5,37.1,66.5,36.5,66.2,36.2z"/>
</svg>
