<?xml version="1.0" encoding="utf-8"?>
<!-- Generator: Adobe Illustrator 22.1.0, SVG Export Plug-In . SVG Version: 6.00 Build 0)  -->
<svg version="1.1" id="Layer_1" xmlns="http://www.w3.org/2000/svg" xmlns:xlink="http://www.w3.org/1999/xlink" x="0px" y="0px"
	 viewBox="0 0 88 88" style="enable-background:new 0 0 88 88;" xml:space="preserve">
<style type="text/css">
	.st0{fill:#81D2EB;}
	.st1{fill:#FFFFFF;}
	.st2{fill:#0081A1;}
	.st3{fill:#009FC7;}
</style>
<circle class="st0" cx="44" cy="44" r="44"/>
<path class="st1" d="M21.6,68c0,0.9,0.7,1.6,1.6,1.6h25.6c0.9,0,1.6-0.7,1.6-1.6v-9.6c0-0.9-0.7-1.6-1.6-1.6H23.2
	c-0.9,0-1.6,0.7-1.6,1.6V68z"/>
<path class="st1" d="M21.6,51.2c0,0.9,0.7,1.6,1.6,1.6h25.6c0.9,0,1.6-0.7,1.6-1.6v-9.6c0-0.9-0.7-1.6-1.6-1.6H23.2
	c-0.9,0-1.6,0.7-1.6,1.6V51.2z"/>
<path class="st1" d="M21.6,32.8c0,0.9,0.7,1.6,1.6,1.6h25.6c0.9,0,1.6-0.7,1.6-1.6V20c0-0.9-0.7-1.6-1.6-1.6H23.2
	c-0.9,0-1.6,0.7-1.6,1.6V32.8z"/>
<path class="st2" d="M63.2,24.8H44v-3.2l-6.4,4.8l6.4,4.8V28h17.6c0.9,0,1.6,0.7,1.6,1.6V60c0,0.9-0.7,1.6-1.6,1.6H50.4v3.2h12.8
	c1.8,0,3.2-1.4,3.2-3.2V28C66.4,26.2,65,24.8,63.2,24.8z"/>
<polygon class="st3" points="37.6,44 37.6,34.4 34.4,34.4 34.4,44 31.2,44 36,48.8 40.8,44 "/>
<polygon class="st3" points="37.6,61.6 37.6,52.8 34.4,52.8 34.4,61.6 31.2,61.6 36,66.4 40.8,61.6 "/>
</svg>
