<?xml version="1.0" encoding="utf-8"?>
<!-- Generator: Adobe Illustrator 22.1.0, SVG Export Plug-In . SVG Version: 6.00 Build 0)  -->
<svg version="1.1" id="Layer_1" xmlns="http://www.w3.org/2000/svg" xmlns:xlink="http://www.w3.org/1999/xlink" x="0px" y="0px"
	 viewBox="0 0 88 88" style="enable-background:new 0 0 88 88;" xml:space="preserve">
<style type="text/css">
	.st0{fill:#81D2EB;}
	.st1{fill:#009FC7;}
	.st2{fill:#0081A1;}
	.st3{fill:#FFFFFF;}
</style>
<circle class="st0" cx="44" cy="44" r="44"/>
<polygon class="st1" points="69.6,69.6 69.6,24.8 55.2,18.4 31.2,24.8 18.4,18.4 18.4,63.2 31.2,69.6 55.2,63.2 "/>
<polygon class="st2" points="55.2,63.2 69.6,69.6 69.6,24.8 55.2,18.4 "/>
<polygon class="st2" points="31.2,24.8 18.4,18.4 18.4,63.2 31.2,69.6 "/>
<path class="st3" d="M55.8,56.1c-0.3-0.1-0.7-0.2-1-0.1L52,56.8v-9.2l3.3-2.6l7.9,5.1v9.2L55.8,56.1z M31.4,62.3L24.8,59v-9.9
	l6.2,1.2c0.1,0,0.2,0,0.3,0l7.9-1.4v11.3L31.4,62.3z M30.5,31.8c0.4,0.2,0.8,0.2,1.1,0.1l8.4-2.2v4.4l-2.7,2.7h-5.9l-6.5-2.2V29
	L30.5,31.8z M55.1,25.7l8.1,3.4v12.7L58,38.5c-0.2-0.2-0.6-0.2-0.8,0c-0.3,0.1-0.4,0.4-0.4,0.7v4.9l-1.2-0.7
	c-0.3-0.2-0.7-0.2-0.9,0.1l-4,3.2c-0.2,0.2-0.3,0.4-0.3,0.6v10l-9.6,2.6V48c0-0.2-0.1-0.5-0.3-0.6c-0.2-0.2-0.4-0.2-0.7-0.2
	l-8.7,1.6l-6.4-1.3V36.3l6.1,2.1c0.1,0,0.2,0,0.3,0h6.4c0.2,0,0.4-0.1,0.6-0.2l3.2-3.2c0.1-0.1,0.2-0.4,0.2-0.6v-5.1l8.8-2.3v2.1
	l-3.5,1.4c-0.4,0.2-0.6,0.6-0.4,1c0.2,0.4,0.6,0.6,1,0.4l2.9-1.2v2.3l-3.5,1.4c-0.4,0.2-0.6,0.6-0.4,1c0.2,0.4,0.6,0.6,1,0.4
	l2.9-1.2v2.3l-3.5,1.4c-0.4,0.2-0.6,0.6-0.4,1c0.2,0.4,0.6,0.6,1,0.4l2.9-1.2v2.8l1.6-0.8V26.5L55.1,25.7z M63.2,48.1l-4.8-3.1v-4.4
	l4.8,3V48.1z M65.4,26.5l-9.6-4c-0.3-0.1-0.7-0.2-1-0.1l-23.4,6.2L23.9,25c-0.5-0.2-1.1-0.2-1.6,0.1c-0.5,0.3-0.8,0.8-0.8,1.4V60
	c0,0.6,0.3,1.2,0.9,1.4l8,4c0.3,0.2,0.7,0.2,1.1,0.1l23.5-6.3l9.1,3.8c0.5,0.2,1.1,0.1,1.5-0.1c0.4-0.3,0.7-0.8,0.7-1.3V28
	C66.4,27.4,66,26.8,65.4,26.5z"/>
</svg>
