<?xml version="1.0" encoding="utf-8"?>
<!-- Generator: Adobe Illustrator 22.1.0, SVG Export Plug-In . SVG Version: 6.00 Build 0)  -->
<svg version="1.1" id="Layer_1" xmlns="http://www.w3.org/2000/svg" xmlns:xlink="http://www.w3.org/1999/xlink" x="0px" y="0px"
	 viewBox="0 0 88 88" style="enable-background:new 0 0 88 88;" xml:space="preserve">
<style type="text/css">
	.st0{fill:#FABC3D;}
	.st1{fill:#4AC3AF;}
	.st2{fill:#0D9681;}
	.st3{fill:#8CE3D4;}
	.st4{fill:#17B198;}
	.st5{fill:#C2F8F0;}
	.st6{fill:#FFFFFF;}
</style>
<circle class="st0" cx="44" cy="44" r="44"/>
<path class="st1" d="M47.9,19c-0.5-0.7-1.4-0.9-2.1-0.4l-14.2,9.8c-0.7,0.5-0.9,1.4-0.4,2.1l21.3,30.8c0.5,0.7,1.4,0.8,2.1,0.4
	l14.2-9.8c0.7-0.5,0.8-1.4,0.4-2.1L47.9,19z"/>
<path class="st2" d="M63.7,50.2c0,0.8,0.3,1.6,0.7,2.3l-7.8,5.4c-0.7-1-1.8-1.7-3.1-1.7c-0.8,0-1.6,0.2-2.2,0.7L35.1,33.2
	c1-0.7,1.6-1.8,1.6-3c0-0.8-0.2-1.6-0.7-2.2l7.8-5.4c0.7,1,1.8,1.6,3,1.6c0.8,0,1.6-0.2,2.2-0.7l16.4,23.6
	C64.4,47.8,63.7,48.9,63.7,50.2z"/>
<path class="st3" d="M30.7,23.8c-0.8-0.4-1.8-0.1-2.2,0.7l-8.4,16.4c-0.4,0.8-0.1,1.8,0.7,2.2l35.7,18.2c0.8,0.4,1.8,0.1,2.2-0.7
	l8.4-16.4c0.4-0.8,0.1-1.8-0.7-2.2L30.7,23.8z"/>
<path class="st4" d="M61.3,45.1c0.4,0.8,1.1,1.4,1.8,1.8l-4.6,9c-1.1-0.6-2.5-0.7-3.8,0c-0.8,0.4-1.4,1-1.7,1.7L25.8,43.6
	c0.6-1.1,0.6-2.5,0-3.6c-0.4-0.8-1-1.4-1.7-1.7l4.6-9c1.1,0.6,2.5,0.6,3.6,0c0.8-0.4,1.4-1,1.7-1.7l27.3,13.9
	C60.8,42.5,60.7,43.9,61.3,45.1z"/>
<path class="st3" d="M69.6,68c0,0.9-0.7,1.6-1.6,1.6H20c-0.9,0-1.6-0.7-1.6-1.6V42.4c0-0.9,0.7-1.6,1.6-1.6h48
	c0.9,0,1.6,0.7,1.6,1.6V68z"/>
<path class="st2" d="M66.4,49.6v11.2c-3.1,0-5.6,2.5-5.6,5.6H27.2c0-3.1-2.5-5.6-5.6-5.6V49.6c3.1,0,5.6-2.5,5.6-5.6h33.6
	C60.8,47.1,63.3,49.6,66.4,49.6z"/>
<path class="st5" d="M62.4,55.2c0,1.3-1.1,2.4-2.4,2.4s-2.4-1.1-2.4-2.4c0-1.3,1.1-2.4,2.4-2.4S62.4,53.9,62.4,55.2z"/>
<path class="st2" d="M30.4,55.2c0,1.3-1.1,2.4-2.4,2.4s-2.4-1.1-2.4-2.4c0-1.3,1.1-2.4,2.4-2.4S30.4,53.9,30.4,55.2z"/>
<path class="st5" d="M27.2,66.4c0-3.1-2.5-5.6-5.6-5.6V49.6c3.1,0,5.6-2.5,5.6-5.6h28.3l3.2-3.2H20c-0.9,0-1.6,0.7-1.6,1.6V68
	c0,0.9,0.7,1.6,1.6,1.6h9.9l3.2-3.2H27.2z"/>
<path class="st4" d="M30.4,55.2c0,1.3-1.1,2.4-2.4,2.4s-2.4-1.1-2.4-2.4c0-1.3,1.1-2.4,2.4-2.4S30.4,53.9,30.4,55.2z M21.6,49.6
	v11.2c3.1,0,5.6,2.5,5.6,5.6h5.9l5.4-5.4C37,59.6,36,57.5,36,55.2c0-4.4,3.6-8,8-8c2.3,0,4.3,1,5.8,2.5l5.7-5.7H27.2
	C27.2,47.1,24.7,49.6,21.6,49.6z"/>
<circle class="st5" cx="44" cy="55.2" r="8"/>
<path class="st4" d="M44.4,55.9v1.3c0.4-0.1,0.7-0.3,0.7-0.6C45.1,56.2,45,56,44.4,55.9z M43.5,54.2v-1.3c-0.5,0.1-0.7,0.3-0.7,0.6
	C42.9,53.8,43,54,43.5,54.2z M44,51.1c0.3,0,0.5,0.2,0.5,0.5v0.1c0.5,0.1,1,0.2,1.4,0.5c0.2,0.1,0.3,0.3,0.3,0.6
	c0,0.4-0.3,0.6-0.7,0.6c-0.1,0-0.2,0-0.3-0.1C45,53.1,44.7,53,44.4,53v1.5c1.5,0.4,2.1,1,2.1,2.1c0,1.1-0.8,1.8-2,1.9v0.5
	c0,0.3-0.2,0.5-0.5,0.5c-0.3,0-0.5-0.2-0.5-0.5v-0.5c-0.7-0.1-1.3-0.3-1.9-0.7c-0.2-0.1-0.3-0.3-0.3-0.6c0-0.4,0.3-0.7,0.7-0.7
	c0.1,0,0.3,0,0.4,0.1c0.4,0.3,0.8,0.4,1.2,0.5v-1.5c-1.4-0.4-2.1-0.9-2.1-2c0-1.1,0.8-1.8,2-1.9v-0.1C43.5,51.3,43.7,51.1,44,51.1z"
	/>
<path class="st6" d="M41.6,57.7c-0.2-0.1-0.3-0.3-0.3-0.6c0-0.4,0.3-0.7,0.7-0.7c0.1,0,0.3,0.1,0.4,0.1c0.1,0.1,0.3,0.1,0.4,0.2
	l0.8-0.8v-0.4c-1.4-0.4-2.1-0.9-2.1-2c0-1.1,0.8-1.8,2-1.9v-0.1c0-0.3,0.2-0.5,0.5-0.5c0.3,0,0.5,0.2,0.5,0.5v0.1
	c0.5,0.1,1,0.2,1.4,0.5c0.2,0.1,0.3,0.3,0.3,0.6c0,0.4-0.3,0.6-0.7,0.6c-0.1,0-0.2,0-0.3-0.1C45,53.2,44.7,53,44.4,53v1.5
	c0.2,0,0.3,0.1,0.5,0.2l4.9-4.9c-1.5-1.5-3.5-2.5-5.8-2.5c-4.4,0-8,3.6-8,8c0,2.3,1,4.4,2.5,5.8l3.2-3.2
	C41.7,57.8,41.6,57.7,41.6,57.7z"/>
<path class="st6" d="M30.4,55.2c0,1.3-1.1,2.4-2.4,2.4s-2.4-1.1-2.4-2.4c0-1.3,1.1-2.4,2.4-2.4S30.4,53.9,30.4,55.2z"/>
<path class="st6" d="M43.5,52.9v1.3c-0.5-0.2-0.7-0.4-0.7-0.7C42.9,53.2,43.1,53,43.5,52.9z"/>
</svg>
