<?xml version="1.0" encoding="utf-8"?>
<!-- Generator: Adobe Illustrator 22.1.0, SVG Export Plug-In . SVG Version: 6.00 Build 0)  -->
<svg version="1.1" id="Layer_1" xmlns="http://www.w3.org/2000/svg" xmlns:xlink="http://www.w3.org/1999/xlink" x="0px" y="0px"
	 viewBox="0 0 88 88" style="enable-background:new 0 0 88 88;" xml:space="preserve">
<style type="text/css">
	.st0{fill:#32BEA6;}
	.st1{fill:#9C6144;}
	.st2{fill:#F0F1F1;}
	.st3{fill:#3E3E3F;}
	.st4{fill:#5B5C5F;}
	.st5{fill:#AF7653;}
	.st6{fill:#FFFFFF;}
</style>
<circle class="st0" cx="44" cy="44" r="44"/>
<path class="st1" d="M66.9,37c-0.6,0.6-1.6,0.6-2.3,0L51,23.4c-0.6-0.6-0.6-1.6,0-2.3l2.3-2.3c0.6-0.6,1.6-0.6,2.3,0l13.6,13.6
	c0.6,0.6,0.6,1.6,0,2.3L66.9,37z"/>
<path class="st2" d="M36.7,51.3l0.4-7.8l5.1-5.1l7.4,7.4l-5.1,5.1L36.7,51.3z M61.5,33.9L53,42.3L45.7,35l8.5-8.5l-2.8-2.8
	L33.2,41.8l-0.6,10.7l-8.1,8.1l2.8,2.8l8.1-8.1l10.7-0.6l18.1-18.1L61.5,33.9z"/>
<path class="st3" d="M24.5,60.7l-4.8,1.9c-0.5,0.2-0.8,0.5-0.9,1c-0.1,0.5-0.1,1,0.2,1.4c1.1,1.6,2.5,3,4.1,4.1
	c0.4,0.3,0.9,0.3,1.4,0.2c0.5-0.1,0.8-0.5,1-0.9l1.9-4.8L24.5,60.7z"/>
<path class="st4" d="M24.5,60.7l-4.8,1.9c-0.5,0.2-0.8,0.5-0.9,1c-0.1,0.5-0.1,1,0.2,1.4c0.6,0.9,1.2,1.6,1.9,2.3l5.1-5.1L24.5,60.7
	z"/>
<path class="st5" d="M55.6,18.9c-0.6-0.6-1.6-0.6-2.3,0L51,21.1c-0.6,0.6-0.6,1.6,0,2.3l6.9,6.9l4.5-4.5L55.6,18.9z"/>
<polygon class="st6" points="54.1,26.5 51.3,23.7 33.2,41.8 32.7,52.5 24.5,60.7 26,62.2 36.9,51.3 36.7,51.3 37.1,43.5 42.3,38.4 
	46,42.1 49.4,38.8 45.7,35 "/>
</svg>
