<?xml version="1.0" encoding="utf-8"?>
<!-- Generator: Adobe Illustrator 22.1.0, SVG Export Plug-In . SVG Version: 6.00 Build 0)  -->
<svg version="1.1" id="Layer_1" xmlns="http://www.w3.org/2000/svg" xmlns:xlink="http://www.w3.org/1999/xlink" x="0px" y="0px"
	 viewBox="0 0 88 88" style="enable-background:new 0 0 88 88;" xml:space="preserve">
<style type="text/css">
	.st0{fill:#919191;}
	.st1{fill:#727272;}
	.st2{fill:#A6A6A6;}
	.st3{fill:#F1F1F1;}
	.st4{fill:#C6C6C6;}
</style>
<circle class="st0" cx="44" cy="44" r="44"/>
<polygon class="st1" points="50.4,36.8 36,38.4 21.6,48 21.6,66.4 68,66.4 68,20 "/>
<polygon class="st2" points="50.4,36.8 36,38.4 21.6,48 21.6,52.8 35.2,47.2 51.2,47.2 68,36 68,20 "/>
<path class="st3" d="M68,66.4H21.6V20c0-0.9-0.7-1.6-1.6-1.6s-1.6,0.7-1.6,1.6v49.6H68c0.9,0,1.6-0.7,1.6-1.6S68.9,66.4,68,66.4z"/>
<polygon class="st4" points="51.2,47.2 35.2,47.2 21.6,52.8 21.6,61.6 36,56 51.2,57.6 68,48.8 68,36 "/>
</svg>
