<svg id="Layer_1" data-name="Layer 1" xmlns="http://www.w3.org/2000/svg" viewBox="0 0 88 88"><defs><style>.cls-1{fill:#25b7d3;}.cls-2{fill:#fbe158;}.cls-3{fill:#f3b607;}.cls-4{fill:#fbec9a;}.cls-5{fill:#facb1b;}.cls-6{fill:#fff;}</style></defs><title>insurance-icon</title><circle class="cls-1" cx="44" cy="44" r="44"/><path class="cls-2" d="M21.6,28V40.8c0,12.8,11.94,24.8,22.34,28.8,10.4-4,22.35-16,22.35-28.8V28C55,28,43.94,18.4,43.94,18.4S32.85,28,21.6,28Z"/><path class="cls-3" d="M63.09,30.4V40.8c0,6.69-1.78,14.83-15.94,23.93a18.21,18.21,0,0,1-3.21,1.67,17.79,17.79,0,0,1-3.2-1.67C27.12,56,24.8,48,24.8,40.8V30.4c4.07-.06,13.9-2,19.14-8C49.12,28.46,59,30.4,63.09,30.4Z"/><path class="cls-4" d="M21.6,28V40.8c0,12.8,11.94,24.8,22.34,28.8V18.4S32.85,28,21.6,28Z"/><path class="cls-5" d="M24.8,30.4V40.8C24.8,48,27.12,56,40.74,64.73a17.79,17.79,0,0,0,3.2,1.67v-44C38.7,28.43,28.87,30.34,24.8,30.4Z"/><path class="cls-6" d="M45.38,45.88v4c1.37-.2,2.07-.84,2.07-1.9S47,46.43,45.38,45.88Zm-2.73-5.1V36.85c-1.4.21-2,.9-2,1.84S41,40.2,42.65,40.78ZM44,31.35a1.5,1.5,0,0,1,1.51,1.51v.41a12.14,12.14,0,0,1,4.22,1.4,2,2,0,0,1-.93,3.7,2.08,2.08,0,0,1-1-.27,11.28,11.28,0,0,0-2.42-1v4.42c4.43,1.2,6.32,3,6.32,6.27s-2.5,5.35-6.17,5.76v1.55a1.52,1.52,0,0,1-3,0V53.54a14.36,14.36,0,0,1-5.74-2,2,2,0,0,1,1-3.72,2.07,2.07,0,0,1,1.14.38,11,11,0,0,0,3.73,1.62V45.16C38.45,44,36.38,42.42,36.38,39c0-3.2,2.45-5.36,6.12-5.73v-.36A1.5,1.5,0,0,1,44,31.35Z"/></svg>