<?xml version="1.0" encoding="utf-8"?>
<!-- Generator: Adobe Illustrator 22.1.0, SVG Export Plug-In . SVG Version: 6.00 Build 0)  -->
<svg version="1.1" id="Layer_1" xmlns="http://www.w3.org/2000/svg" xmlns:xlink="http://www.w3.org/1999/xlink" x="0px" y="0px"
	 viewBox="0 0 88 88" style="enable-background:new 0 0 88 88;" xml:space="preserve">
<style type="text/css">
	.st0{fill:#E04F5F;}
	.st1{fill:#E2E4E5;}
	.st2{fill:#FFFFFF;}
	.st3{fill:#CFD3D4;}
	.st4{fill:#9CE5F4;}
	.st5{fill:#C9F2F8;}
	.st6{fill:#DF2C2C;}
</style>
<circle class="st0" cx="44" cy="44" r="44"/>
<path class="st1" d="M64.3,27.7c-1.6-1.6-4-1.5-5.5,0l5.5,5.5C65.8,31.6,65.7,29.2,64.3,27.7z"/>
<path class="st2" d="M58.7,27.7l2.8,2.8l2.7-2.7C62.8,26.2,60.3,26.1,58.7,27.7z"/>
<path class="st3" d="M61.5,33.2l1.4-1.4l-2.7-2.7l-1.3,1.3C59.8,31.2,60.7,32.2,61.5,33.2z"/>
<path class="st3" d="M44,24.8c1.1,0,2.2,0.1,3.2,0.2v-2.6h-6.4V25C41.8,24.9,42.9,24.8,44,24.8z"/>
<path class="st2" d="M66.4,47.2c0,12.4-10,22.4-22.4,22.4s-22.4-10-22.4-22.4s10-22.4,22.4-22.4S66.4,34.8,66.4,47.2z"/>
<path class="st4" d="M62.4,47.4c0,10.2-8.2,18.4-18.4,18.4s-18.4-8.2-18.4-18.4C25.6,37.2,33.8,29,44,29S62.4,37.2,62.4,47.4z"/>
<path class="st5" d="M25.6,47.4c0,10.2,8.2,18.4,18.4,18.4V29C33.8,29,25.6,37.2,25.6,47.4z"/>
<path class="st6" d="M44,42.4C41.2,36,33.6,38,33.6,45.2C33.7,51.8,44,56.8,44,56.8s10.3-5,10.4-11.6C54.4,38,46.8,36.8,44,42.4z"/>
<path class="st1" d="M50.4,23.2H37.6v-1.7c0-1.2,1-2.3,2.2-2.3h8.4c1.2,0,2.2,1.1,2.2,2.3V23.2z"/>
<path class="st2" d="M44,19.2h-4.2c-1.2,0-2.2,1.1-2.2,2.3v1.7H44V19.2z"/>
</svg>
