<?xml version="1.0" encoding="utf-8"?>
<!-- Generator: Adobe Illustrator 22.1.0, SVG Export Plug-In . SVG Version: 6.00 Build 0)  -->
<svg version="1.1" id="Layer_1" xmlns="http://www.w3.org/2000/svg" xmlns:xlink="http://www.w3.org/1999/xlink" x="0px" y="0px"
	 viewBox="0 0 88 88" style="enable-background:new 0 0 88 88;" xml:space="preserve">
<style type="text/css">
	.st0{fill:#FABC3D;}
	.st1{fill:#84462D;}
	.st2{fill:#9C6144;}
	.st3{fill:#F4D0A1;}
	.st4{fill:#AF7653;}
</style>
<circle class="st0" cx="44" cy="44" r="44"/>
<path class="st1" d="M69.6,53.6c0,1.8-1.4,3.2-3.2,3.2H21.6c-1.8,0-3.2-1.4-3.2-3.2v-32c0-1.8,1.4-3.2,3.2-3.2h44.8
	c1.8,0,3.2,1.4,3.2,3.2V53.6z"/>
<path class="st2" d="M63.2,28H37.6v-1.6h24C62.5,26.4,63.2,27.1,63.2,28z"/>
<path class="st2" d="M63.2,37.6H50.4V36h11.2C62.5,36,63.2,36.7,63.2,37.6z"/>
<path class="st2" d="M55.2,54.4H52v-0.8h3.2V54.4z M61.6,54.4h-3.2v-0.8h3.2V54.4z"/>
<polygon class="st2" points="66.8,54.4 64.8,54.4 64.8,53.6 66,53.6 66,52.4 66.8,52.4 "/>
<path class="st2" d="M66.8,30H66v-3.2h0.8V30z M66.8,36.4H66v-3.2h0.8V36.4z M66.8,42.8H66v-3.2h0.8V42.8z M66.8,49.2H66V46h0.8
	V49.2z"/>
<polygon class="st2" points="66.8,23.6 66,23.6 66,22.4 64.8,22.4 64.8,21.6 66.8,21.6 "/>
<path class="st2" d="M29.6,22.4h-3.2v-0.8h3.2V22.4z M36,22.4h-3.2v-0.8H36V22.4z M42.4,22.4h-3.2v-0.8h3.2V22.4z M48.8,22.4h-3.2
	v-0.8h3.2V22.4z M55.2,22.4H52v-0.8h3.2V22.4z M61.6,22.4h-3.2v-0.8h3.2V22.4z"/>
<path class="st2" d="M50.4,33.4c0-1.3-0.8-2.5-2-3L20.6,19.3c-0.5-0.2-1.1-0.1-1.5,0.2c-0.4,0.3-0.7,0.8-0.7,1.3v33.9
	c0,1.3,0.8,2.5,2,3L46,69.4c1,0.4,2.1,0.3,3-0.3c0.9-0.6,1.4-1.6,1.4-2.7V33.4z"/>
<path class="st3" d="M34.4,57.6c0-0.3,0.1-0.5,0.3-0.6c0.2-0.2,0.5-0.2,0.7-0.1l8,3.2c0.3,0.1,0.5,0.4,0.5,0.8v1.6
	c0,0.3-0.1,0.5-0.3,0.6c-0.2,0.2-0.5,0.2-0.7,0.1l-8-3.2c-0.3-0.1-0.5-0.4-0.5-0.8V57.6z"/>
<path class="st4" d="M20.6,19.3c-0.5-0.2-1.1-0.1-1.5,0.2c-0.4,0.3-0.7,0.8-0.7,1.3v33.9c0,0.5,0.1,0.9,0.3,1.3l26.7-26.7L20.6,19.3
	z"/>
</svg>
