<?xml version="1.0" encoding="utf-8"?>
<!-- Generator: Adobe Illustrator 22.1.0, SVG Export Plug-In . SVG Version: 6.00 Build 0)  -->
<svg version="1.1" id="Layer_1" xmlns="http://www.w3.org/2000/svg" xmlns:xlink="http://www.w3.org/1999/xlink" x="0px" y="0px"
	 viewBox="0 0 88 88" style="enable-background:new 0 0 88 88;" xml:space="preserve">
<style type="text/css">
	.st0{fill:#25B7D3;}
	.st1{fill:#FFFFFF;}
	.st2{fill:#F0F1F1;}
	.st3{fill:#9C6144;}
	.st4{fill:#DF2C2C;}
	.st5{fill:#40C9E7;}
</style>
<circle class="st0" cx="44" cy="44" r="44"/>
<path class="st1" d="M63.2,33.8V22.4c0-0.4-0.4-0.8-0.8-0.8h-8c-0.4,0-0.8,0.4-0.8,0.8v3.2L63.2,33.8z"/>
<path class="st2" d="M56.8,48.8c0,0.4-0.4,0.8-0.8,0.8h-4.8c-0.4,0-0.8-0.4-0.8-0.8V44c0-0.4,0.4-0.8,0.8-0.8H56
	c0.4,0,0.8,0.4,0.8,0.8V48.8z M37.6,48.8c0,0.4-0.4,0.8-0.8,0.8H32c-0.4,0-0.8-0.4-0.8-0.8V44c0-0.4,0.4-0.8,0.8-0.8h4.8
	c0.4,0,0.8,0.4,0.8,0.8V48.8z M64.3,43.2L44,25.8L23.7,43.2c-0.3,0.2-0.6,0.4-0.9,0.5v25.9h42v-26C64.6,43.5,64.5,43.4,64.3,43.2z"
	/>
<path class="st3" d="M44.1,53.6h-0.1c-3.5,0-6.3,2.8-6.3,6.3v9.7h12.8v-9.7C50.4,56.4,47.6,53.6,44.1,53.6z"/>
<path class="st4" d="M66.4,44c-0.7,0-1.5-0.3-2.1-0.8L44,25.8L23.7,43.2c-1.3,1.1-3.4,1-4.5-0.3c-1.2-1.3-1-3.4,0.3-4.5l22.4-19.2
	c1.2-1,3-1,4.2,0l22.4,19.2c1.3,1.1,1.5,3.2,0.3,4.5C68.2,43.6,67.3,44,66.4,44z"/>
<path class="st1" d="M37.6,48.8c0,0.4-0.4,0.8-0.8,0.8H32c-0.4,0-0.8-0.4-0.8-0.8V44c0-0.4,0.4-0.8,0.8-0.8h4.8
	c0.4,0,0.8,0.4,0.8,0.8V48.8z M23.7,43.2c-0.3,0.2-0.6,0.4-0.9,0.5v25.8l33.3-33.3L44,25.8L23.7,43.2z"/>
<path class="st5" d="M56.8,48.8c0,0.4-0.4,0.8-0.8,0.8h-4.8c-0.4,0-0.8-0.4-0.8-0.8V44c0-0.4,0.4-0.8,0.8-0.8H56
	c0.4,0,0.8,0.4,0.8,0.8V48.8z M37.6,48.8c0,0.4-0.4,0.8-0.8,0.8H32c-0.4,0-0.8-0.4-0.8-0.8V44c0-0.4,0.4-0.8,0.8-0.8h4.8
	c0.4,0,0.8,0.4,0.8,0.8V48.8z"/>
</svg>
