<?xml version="1.0" encoding="utf-8"?>
<!-- Generator: Adobe Illustrator 22.1.0, SVG Export Plug-In . SVG Version: 6.00 Build 0)  -->
<svg version="1.1" id="Layer_1" xmlns="http://www.w3.org/2000/svg" xmlns:xlink="http://www.w3.org/1999/xlink" x="0px" y="0px"
	 viewBox="0 0 88 88" style="enable-background:new 0 0 88 88;" xml:space="preserve">
<style type="text/css">
	.st0{fill:#FABC3D;}
	.st1{fill:#3E3E3F;}
	.st2{fill:#5B5C5F;}
	.st3{fill:#FA5655;}
	.st4{fill:#818284;}
	.st5{fill:#F79392;}
</style>
<circle class="st0" cx="44" cy="44" r="44"/>
<path class="st1" d="M63.2,63.2h-36c-1.3,0-2.4-1.1-2.4-2.4V21.6c0-1.3,1.1-2.4,2.4-2.4h36V63.2z"/>
<path class="st2" d="M31.2,63.2h-4c-1.3,0-2.4-1.1-2.4-2.4V21.6c0-1.3,1.1-2.4,2.4-2.4h4V63.2z"/>
<polygon class="st3" points="31.2,63.2 31.2,69.6 35.2,66.4 39.2,69.6 39.2,63.2 "/>
<polygon class="st2" points="31.2,19.2 31.2,51.2 63.2,19.2 63.2,19.2 "/>
<path class="st4" d="M31.2,19.2h-4c-1.3,0-2.4,1.1-2.4,2.4v36.1l6.4-6.4V19.2z"/>
<path class="st3" d="M56.8,24.8H52v38.4c0,0.4,0.4,0.8,0.8,0.8H56c0.4,0,0.8-0.4,0.8-0.8V24.8z"/>
<path class="st5" d="M56.8,25.7v-6.5c0-0.4-0.4-0.8-0.8-0.8h-3.2c-0.4,0-0.8,0.4-0.8,0.8v11.3L56.8,25.7z"/>
</svg>
