<?xml version="1.0" encoding="utf-8"?>
<!-- Generator: Adobe Illustrator 22.1.0, SVG Export Plug-In . SVG Version: 6.00 Build 0)  -->
<svg version="1.1" id="Layer_1" xmlns="http://www.w3.org/2000/svg" xmlns:xlink="http://www.w3.org/1999/xlink" x="0px" y="0px"
	 viewBox="0 0 88 88" style="enable-background:new 0 0 88 88;" xml:space="preserve">
<style type="text/css">
	.st0{fill:#FABC3D;}
	.st1{fill:#DF2C2C;}
	.st2{fill:#0484AB;}
	.st3{fill:#FFFFFF;}
	.st4{fill:#3E3E3F;}
	.st5{fill:#FA5655;}
	.st6{fill:#059BBF;}
	.st7{fill:#0D9681;}
</style>
<circle class="st0" cx="44" cy="44" r="44"/>
<path class="st1" d="M34.4,21.6c0-1.8-1.4-3.2-3.2-3.2h-9.6c-1.8,0-3.2,1.4-3.2,3.2v44.8c0,1.8,1.4,3.2,3.2,3.2h9.6
	c1.8,0,3.2-1.4,3.2-3.2V21.6z"/>
<path class="st2" d="M50.4,21.6c0-1.8-1.4-3.2-3.2-3.2h-9.6c-1.8,0-3.2,1.4-3.2,3.2v44.8c0,1.8,1.4,3.2,3.2,3.2h9.6
	c1.8,0,3.2-1.4,3.2-3.2V21.6z"/>
<rect x="21.6" y="21.6" class="st3" width="9.6" height="25.6"/>
<rect x="37.6" y="21.6" class="st3" width="9.6" height="25.6"/>
<rect x="21.6" y="50.4" class="st3" width="9.6" height="6.4"/>
<rect x="37.6" y="50.4" class="st3" width="9.6" height="6.4"/>
<path class="st4" d="M29.6,63.2c0,1.8-1.4,3.2-3.2,3.2c-1.8,0-3.2-1.4-3.2-3.2c0-1.8,1.4-3.2,3.2-3.2C28.2,60,29.6,61.4,29.6,63.2z"
	/>
<path class="st4" d="M45.6,63.2c0,1.8-1.4,3.2-3.2,3.2c-1.8,0-3.2-1.4-3.2-3.2c0-1.8,1.4-3.2,3.2-3.2C44.2,60,45.6,61.4,45.6,63.2z"
	/>
<path class="st5" d="M21.6,21.6h9.6v9l3.2-3.2v-5.8c0-1.8-1.4-3.2-3.2-3.2h-9.6c-1.8,0-3.2,1.4-3.2,3.2v21.8l3.2-3.2V21.6z"/>
<path class="st6" d="M37.6,21.6h9.6v9l3.2-3.2v-5.8c0-1.8-1.4-3.2-3.2-3.2h-9.6c-1.8,0-3.2,1.4-3.2,3.2v21.8l3.2-3.2V21.6z"/>
<path class="st7" d="M66.5,21.6c-0.1-1.7-1.6-3.1-3.3-2.9l-9.4,0.6c-1.7,0.1-3.1,1.6-2.9,3.3l2.8,44c0.1,1.7,1.6,3.1,3.3,2.9
	l9.4-0.6c1.7-0.1,3.1-1.6,2.9-3.3L66.5,21.6z"/>
<rect x="54.7" y="22.1" transform="matrix(0.998 -6.328826e-02 6.328826e-02 0.998 -2.0779 3.8307)" class="st3" width="9.4" height="25.2"/>
<rect x="55.9" y="50.4" transform="matrix(0.998 -6.276029e-02 6.276029e-02 0.998 -3.243 3.9102)" class="st3" width="9.5" height="6.3"/>
<path class="st4" d="M64.4,63c0,1.7-1.4,3.2-3.1,3.2c-1.7,0-3.2-1.4-3.2-3.2c0-1.7,1.4-3.1,3.2-3.1C63,59.9,64.4,61.3,64.4,63z"/>
</svg>
