<?xml version="1.0" encoding="utf-8"?>
<!-- Generator: Adobe Illustrator 22.1.0, SVG Export Plug-In . SVG Version: 6.00 Build 0)  -->
<svg version="1.1" id="Layer_1" xmlns="http://www.w3.org/2000/svg" xmlns:xlink="http://www.w3.org/1999/xlink" x="0px" y="0px"
	 viewBox="0 0 88 88" style="enable-background:new 0 0 88 88;" xml:space="preserve">
<style type="text/css">
	.st0{fill:#FABC3D;}
	.st1{fill:#FFFFFF;}
	.st2{fill:#FA5655;}
	.st3{fill:#0484AB;}
	.st4{fill:#059BBF;}
	.st5{fill:#21B2D1;}
</style>
<circle class="st0" cx="44" cy="44" r="44"/>
<rect x="18.4" y="29.6" class="st1" width="51.2" height="40"/>
<rect x="18.4" y="29.6" class="st2" width="51.2" height="4.8"/>
<path class="st3" d="M53.6,20c0-0.9-0.7-1.6-1.6-1.6H36c-0.9,0-1.6,0.7-1.6,1.6v16c0,0.9,0.7,1.6,1.6,1.6h16c0.9,0,1.6-0.7,1.6-1.6
	V20z"/>
<path class="st4" d="M44,18.4h-8c-0.9,0-1.6,0.7-1.6,1.6v16c0,0.9,0.7,1.6,1.6,1.6h8V18.4z"/>
<rect x="39.2" y="61.6" class="st5" width="9.6" height="8"/>
<polygon class="st2" points="48.8,56.8 39.2,56.8 36.8,61.6 51.2,61.6 "/>
<polygon class="st1" points="50.4,26.4 45.6,26.4 45.6,21.6 42.4,21.6 42.4,26.4 37.6,26.4 37.6,29.6 42.4,29.6 42.4,34.4 
	45.6,34.4 45.6,29.6 50.4,29.6 "/>
<rect x="21.6" y="40.8" class="st5" width="4.8" height="4.8"/>
<rect x="29.6" y="40.8" class="st5" width="4.8" height="4.8"/>
<rect x="37.6" y="40.8" class="st5" width="4.8" height="4.8"/>
<rect x="45.6" y="40.8" class="st5" width="4.8" height="4.8"/>
<rect x="53.6" y="40.8" class="st5" width="4.8" height="4.8"/>
<rect x="61.6" y="40.8" class="st5" width="4.8" height="4.8"/>
<rect x="21.6" y="48.8" class="st5" width="4.8" height="4.8"/>
<rect x="29.6" y="48.8" class="st5" width="4.8" height="4.8"/>
<rect x="37.6" y="48.8" class="st5" width="4.8" height="4.8"/>
<rect x="45.6" y="48.8" class="st5" width="4.8" height="4.8"/>
<rect x="53.6" y="48.8" class="st5" width="4.8" height="4.8"/>
<rect x="61.6" y="48.8" class="st5" width="4.8" height="4.8"/>
<rect x="21.6" y="56.8" class="st5" width="4.8" height="4.8"/>
<rect x="29.6" y="56.8" class="st5" width="4.8" height="4.8"/>
<rect x="53.6" y="56.8" class="st5" width="4.8" height="4.8"/>
<rect x="61.6" y="56.8" class="st5" width="4.8" height="4.8"/>
</svg>
