<?xml version="1.0" encoding="utf-8"?>
<!-- Generator: Adobe Illustrator 22.1.0, SVG Export Plug-In . SVG Version: 6.00 Build 0)  -->
<svg version="1.1" id="Layer_1" xmlns="http://www.w3.org/2000/svg" xmlns:xlink="http://www.w3.org/1999/xlink" x="0px" y="0px"
	 viewBox="0 0 88 88" style="enable-background:new 0 0 88 88;" xml:space="preserve">
<style type="text/css">
	.st0{fill:#25B7D3;}
	.st1{fill:#FFFFFF;}
	.st2{fill:#E2E4E5;}
	.st3{fill:#FA5655;}
	.st4{fill:#DF2C2C;}
</style>
<circle class="st0" cx="44" cy="44" r="44"/>
<path class="st1" d="M44,56.8c-7.1,0-12.8-5.7-12.8-12.8S36.9,31.2,44,31.2S56.8,36.9,56.8,44S51.1,56.8,44,56.8z M44,20
	c-13.3,0-24,10.7-24,24s10.7,24,24,24s24-10.7,24-24S57.3,20,44,20z"/>
<path class="st2" d="M44,56.8c-7.1,0-12.8-5.7-12.8-12.8S36.9,31.2,44,31.2S56.8,36.9,56.8,44S51.1,56.8,44,56.8z M44,26.4
	c-9.7,0-17.6,7.9-17.6,17.6S34.3,61.6,44,61.6S61.6,53.7,61.6,44S53.7,26.4,44,26.4z"/>
<path class="st3" d="M19.1,37.8c0.2-0.8,1-1.3,1.9-1.2l11,2.1c0.4,0.1,0.8,0.4,1.1,0.7c0.1,0.2,0.1,8.8,0,9
	c-0.2,0.4-0.6,0.7-1.1,0.7l-11,2.1c-0.8,0.2-1.7-0.4-1.9-1.2c-0.5-2-0.7-4-0.7-6.2S18.7,39.8,19.1,37.8z"/>
<path class="st3" d="M37.8,68.9c-0.8-0.2-1.3-1-1.2-1.9l2.1-11c0.1-0.4,0.4-0.8,0.7-1.1c0.2-0.1,8.8-0.1,9,0
	c0.4,0.2,0.7,0.6,0.7,1.1l2.1,11c0.2,0.8-0.4,1.7-1.2,1.9c-2,0.5-4,0.7-6.2,0.7S39.8,69.3,37.8,68.9z"/>
<path class="st3" d="M68.9,50.2c-0.2,0.8-1,1.3-1.9,1.2l-11-2.1c-0.4-0.1-0.8-0.4-1.1-0.7c-0.1-0.2-0.1-8.8,0-9
	c0.2-0.4,0.6-0.7,1.1-0.7l11-2.1c0.8-0.2,1.7,0.4,1.9,1.2c0.5,2,0.7,4,0.7,6.2S69.3,48.2,68.9,50.2z"/>
<path class="st3" d="M50.2,19.1c0.8,0.2,1.3,1,1.2,1.9l-2.1,11c-0.1,0.4-0.4,0.8-0.7,1.1c-0.2,0.1-8.8,0.1-9,0
	c-0.4-0.2-0.7-0.6-0.7-1.1l-2.1-11c-0.2-0.8,0.4-1.7,1.2-1.9c2-0.5,4-0.7,6.2-0.7S48.2,18.7,50.2,19.1z"/>
<path class="st4" d="M33.1,48.5c0.1-0.2,0.1-8.8,0-9c-0.2-0.4-0.6-0.7-1.1-0.7l-4.5-0.9c-0.7,1.9-1.1,4-1.1,6.1s0.4,4.2,1.1,6.1
	l4.5-0.9C32.5,49.2,32.9,48.9,33.1,48.5z"/>
<path class="st4" d="M48.5,54.9c-0.2-0.1-8.8-0.1-9,0c-0.4,0.2-0.7,0.6-0.7,1.1l-0.9,4.5c1.9,0.7,4,1.1,6.1,1.1s4.2-0.4,6.1-1.1
	L49.3,56C49.2,55.5,48.9,55.1,48.5,54.9z"/>
<path class="st4" d="M60.5,37.9L56,38.7c-0.4,0.1-0.8,0.4-1.1,0.7c-0.1,0.2-0.1,8.8,0,9c0.2,0.4,0.6,0.7,1.1,0.7l4.5,0.9
	c0.7-1.9,1.1-4,1.1-6.1S61.2,39.8,60.5,37.9z"/>
<path class="st4" d="M39.5,33.1c0.2,0.1,8.8,0.1,9,0c0.4-0.2,0.7-0.6,0.7-1.1l0.9-4.5c-1.9-0.7-4-1.1-6.1-1.1s-4.2,0.4-6.1,1.1
	l0.9,4.5C38.8,32.5,39.1,32.9,39.5,33.1z"/>
</svg>
