<?xml version="1.0" encoding="utf-8"?>
<!-- Generator: Adobe Illustrator 22.1.0, SVG Export Plug-In . SVG Version: 6.00 Build 0)  -->
<svg version="1.1" id="Layer_1" xmlns="http://www.w3.org/2000/svg" xmlns:xlink="http://www.w3.org/1999/xlink" x="0px" y="0px"
	 viewBox="0 0 88 88" style="enable-background:new 0 0 88 88;" xml:space="preserve">
<style type="text/css">
	.st0{fill:#FABC3D;}
	.st1{fill:#FFFFFF;}
	.st2{fill:#0484AB;}
	.st3{fill:#CFD3D4;}
	.st4{fill:#B6BCBD;}
	.st5{fill:#FA5655;}
	.st6{fill:#DF2C2C;}
	.st7{fill:#FACB1B;}
	.st8{fill:#F3B607;}
	.st9{fill:#BF0302;}
</style>
<circle class="st0" cx="44" cy="44" r="44"/>
<rect x="18.4" y="39.2" class="st1" width="51.2" height="30.4"/>
<rect x="18.4" y="39.2" class="st2" width="51.2" height="6.4"/>
<path class="st3" d="M56.8,51.6c0,0.2-0.2,0.4-0.4,0.4h-8.8c-0.2,0-0.4-0.2-0.4-0.4c0-0.2,0.2-0.4,0.4-0.4h8.8
	C56.6,51.2,56.8,51.4,56.8,51.6z"/>
<path class="st3" d="M56.8,54.8c0,0.2-0.2,0.4-0.4,0.4h-8.8c-0.2,0-0.4-0.2-0.4-0.4c0-0.2,0.2-0.4,0.4-0.4h8.8
	C56.6,54.4,56.8,54.6,56.8,54.8z"/>
<path class="st3" d="M56.8,58c0,0.2-0.2,0.4-0.4,0.4h-8.8c-0.2,0-0.4-0.2-0.4-0.4s0.2-0.4,0.4-0.4h8.8C56.6,57.6,56.8,57.8,56.8,58z
	"/>
<path class="st4" d="M62.2,55.2v2.1c0.7-0.1,1.1-0.5,1.1-1C63.3,55.8,63.1,55.5,62.2,55.2z M61.3,53.6v-2c-0.7,0.1-1.1,0.5-1.1,1
	C60.2,53,60.4,53.3,61.3,53.6z M61.7,49.6c0.3,0,0.5,0.2,0.5,0.5v0.3c0.7,0.1,1.3,0.3,1.8,0.6c0.2,0.1,0.3,0.3,0.3,0.6
	c0,0.4-0.3,0.6-0.6,0.6c-0.1,0-0.2,0-0.3-0.1c-0.4-0.2-0.8-0.4-1.2-0.5v2.2c1.8,0.4,2.5,1.1,2.5,2.4c0,1.3-1,2.1-2.5,2.3v0.7
	c0,0.3-0.2,0.5-0.5,0.5c-0.3,0-0.5-0.2-0.5-0.5v-0.7c-0.9-0.1-1.7-0.4-2.4-0.9c-0.2-0.1-0.3-0.3-0.3-0.6c0-0.4,0.3-0.6,0.6-0.6
	c0.1,0,0.3,0,0.4,0.1c0.5,0.4,1.1,0.7,1.7,0.8V55c-1.7-0.4-2.5-1.1-2.5-2.4c0-1.2,1-2.1,2.4-2.2v-0.2C61.2,49.9,61.5,49.6,61.7,49.6
	z"/>
<path class="st5" d="M31.1,59.9c-0.6,0-1,0.2-1.4,0.6c-0.3,0.3-0.4,0.8-0.4,1.3c0,0.3,0,0.6,0.1,0.8c1.3-0.9,2.3-1.9,2.3-2.5
	c0-0.1,0-0.1-0.1-0.1C31.6,60,31.5,59.9,31.1,59.9z M48.8,64.8h-8c-0.7,0-1.2-0.2-1.6-0.6c-0.7-0.7-0.7-1.8-0.6-2.9
	c0-0.5,0-1.2-0.1-1.4c0,0,0,0-0.1,0c-0.4,0-0.6,1.1-0.8,2.1c-0.2,1.3-0.5,2.7-1.6,2.7c-0.5,0-0.8-0.2-1.1-0.4
	c-0.5-0.6-0.2-1.8,0.1-2.8c0.1-0.5,0.4-1.4,0.2-1.5c-0.4,0-0.6,0.7-0.9,1.5c-0.4,1.4-1,3.3-3.2,3.3c-0.9,0-1.6-0.4-2.1-1
	c-1.1,0.6-2.4,1-3.5,1c-2.1,0-3-1.3-3-2.6c0-1.6,1.4-3.3,3.8-3.3c0.2,0,0.4,0.2,0.4,0.4c0,0.2-0.2,0.4-0.4,0.4c-1.9,0-3,1.3-3,2.5
	c0,0.9,0.6,1.8,2.2,1.8c1,0,2.1-0.4,3.1-0.9c-0.2-0.4-0.2-0.8-0.2-1.2c0-0.7,0.2-1.4,0.6-1.9c0.5-0.6,1.2-0.9,2-0.9
	c0.4,0,0.8,0.1,1,0.2c0.3,0.2,0.4,0.5,0.4,0.8c0,0.9-1.2,2.2-2.8,3.2c0.3,0.4,0.8,0.6,1.4,0.6c1.5,0,1.9-1.1,2.4-2.7
	c0.3-1,0.6-2.1,1.6-2.1c0.4,0,0.6,0.2,0.7,0.3c0.4,0.5,0.2,1.3-0.1,2.2c-0.2,0.8-0.5,1.8-0.2,2.1c0,0,0.1,0.1,0.4,0.1
	c0.5,0,0.7-1.2,0.8-2.1c0.2-1.3,0.5-2.7,1.6-2.7c0.3,0,0.6,0.1,0.7,0.3c0.4,0.4,0.4,1.1,0.3,1.9c0,0.9-0.1,1.8,0.4,2.3
	c0.2,0.2,0.5,0.3,1,0.3h8c0.2,0,0.4,0.2,0.4,0.4C49.2,64.6,49,64.8,48.8,64.8z"/>
<path class="st6" d="M56.9,21.5c0.8-0.9,2-1.5,3.2-1.5c1.2,0,2.4,0.4,3.3,1.3c0.9,0.9,1.4,2.1,1.3,3.3c0,1.2-0.6,2.4-1.5,3.2
	L43,46.2l-4.5-4.5L56.9,21.5z"/>
<rect x="39.4" y="41.3" transform="matrix(0.7089 -0.7053 0.7053 0.7089 -19.6479 41.3108)" class="st7" width="1.6" height="6.4"/>
<path class="st8" d="M32.9,45.3c0,2.8-2,6.8-2,6.8c-0.5,0-1.7,1.7-1.1,2.2c0.1,0.1,0.2,0.2,0.3,0.3c0.1,0.1,0.2,0.2,0.3,0.3
	c0.5,0.5,2.3-0.5,2.3-1c0,0,3.9-2.1,6.7-2.1c0.4,0,0.7-0.3,0.8-0.6c0.4-2,1.8-3.8,1.8-3.8s-3.6-3.6-4.5-4.5c0,0-1.8,1.4-3.8,1.8
	C33.2,44.6,32.9,44.9,32.9,45.3z"/>
<path class="st7" d="M30.9,52.1c0,0,2-4,2-6.8c0-0.4,0.3-0.7,0.7-0.8c2-0.4,3.8-1.8,3.8-1.8c0.4,0.4,1.3,1.4,2.3,2.3l-9.6,9.6
	c-0.2-0.2-0.1-0.2-0.3-0.3C29.2,53.8,30.4,52.1,30.9,52.1z"/>
<path class="st5" d="M60.2,20c-1.2,0-2.4,0.6-3.2,1.5L38.5,41.6l2.3,2.3l22.6-22.6C62.6,20.4,61.4,20,60.2,20z"/>
<path class="st9" d="M63.5,21.3c-0.9-0.9-2.1-1.4-3.3-1.3c-1.2,0-2.4,0.6-3.2,1.5l-1.3,1.4c-0.4-0.3-0.9-0.5-1.5-0.6
	c-1.1-0.1-2.2,0.4-3.4,1.5c-1.8,1.8-5.9,6.5-6.1,6.7c0,0,0,0,0,0c0,0.1-0.1,0.1-0.1,0.2c0,0,0,0,0,0c-0.2,0.4-0.1,1,0.3,1.3
	c0.5,0.5,1.2,0.5,1.7,0c0.4-0.4,0.5-1,0.2-1.5c1.3-1.5,3.4-3.9,4.7-5.2c0.7-0.7,1.4-1.1,2-1c0.2,0,0.4,0.1,0.6,0.2l-2.5,2.8l5.8,5.8
	l5.9-5.4c0.9-0.8,1.5-2,1.5-3.2C64.8,23.4,64.4,22.2,63.5,21.3z"/>
<path class="st6" d="M60.2,20c-1.2,0-2.4,0.6-3.2,1.5l-5.4,5.9l2.9,2.9l9-9C62.6,20.4,61.4,20,60.2,20z"/>
</svg>
