<?xml version="1.0" encoding="utf-8"?>
<!-- Generator: Adobe Illustrator 22.1.0, SVG Export Plug-In . SVG Version: 6.00 Build 0)  -->
<svg version="1.1" id="Layer_1" xmlns="http://www.w3.org/2000/svg" xmlns:xlink="http://www.w3.org/1999/xlink" x="0px" y="0px"
	 viewBox="0 0 88 88" style="enable-background:new 0 0 88 88;" xml:space="preserve">
<style type="text/css">
	.st0{fill:#C1C1C1;}
	.st1{fill:#626262;}
	.st2{fill:#727272;}
	.st3{fill:#8A8A8A;}
	.st4{fill:#FFFFFF;}
	.st5{fill:#939393;}
</style>
<circle class="st0" cx="44" cy="44" r="44"/>
<path class="st1" d="M69.6,23.2v41.6c0,2.6-2.2,4.8-4.8,4.8H23.2c-2.6,0-4.8-2.2-4.8-4.8V23.2c0-2.6,2.2-4.8,4.8-4.8h41.6
	C67.4,18.4,69.6,20.5,69.6,23.2z"/>
<path class="st2" d="M69.6,25.5v39.2c0,2.6-2.2,4.8-4.8,4.8H23.2c-2.6,0-4.8-2.2-4.8-4.8v-11l9-5.8L41,50.4l12.4-8.3l7.2-12.7
	L69.6,25.5z"/>
<path class="st3" d="M62.4,43.2h-4.8v-4.8h4.8V43.2z M62.4,49.6h-4.8v-4.8h4.8V49.6z M62.4,56h-4.8v-4.8h4.8V56z M62.4,62.4h-4.8
	v-4.8h4.8V62.4z M51.2,62.4v-4.8H56v4.8H51.2z M44.8,62.4v-4.8h4.8v4.8H44.8z M38.4,62.4v-4.8h4.8v4.8H38.4z M32,62.4v-4.8h4.8v4.8
	H32z M25.6,62.4v-4.8h4.8v4.8H25.6z M25.6,51.2h4.8V56h-4.8V51.2z M36.8,51.2V56H32v-4.8H36.8z M43.2,51.2V56h-4.8v-4.8H43.2z
	 M49.6,51.2V56h-4.8v-4.8H49.6z M56,51.2V56h-4.8v-4.8H56z M51.2,44.8H56v4.8h-4.8V44.8z M69.6,32v-1.6H64v-3.2h-1.6v3.2h-4V32h4
	v4.8h-4.8v-2.4H56v2.4h-0.8v1.6H56v4.8h-6.4v6.4h-4.8V48h-1.6v1.6h-4.8v-0.8h-1.6v0.8H32V48h-1.6v1.6h-4.8v-0.8H24v0.8h-1.8v1.6H24
	V56h-5.6v1.6H24v4.8h-5.6V64H24v5.6h1.6V64h4.8v5.6H32V64h4.8v5.6h1.6V64h4.8v5.6h1.6V64h4.8v5.6h1.6V64H56v5.6h1.6V64h4.8v5.6H64
	V64h5.6v-1.6H64v-4.8h5.6V56H64v-4.8h5.6v-1.6H64v-4.8h5.6v-1.6H64v-4.8h5.6v-1.6H64V32H69.6z"/>
<path class="st4" d="M69.6,23.8l-8.5,3.6c-2.1-1.1-4.3,1.3-3.1,3.4l-4.7,8.4c-1.7-0.3-3.2,1.2-2.7,2.9l-8.2,5.5
	c-0.4-0.3-0.9-0.5-1.4-0.5c-0.9,0-1.7,0.5-2.1,1.2l-9.2-1.6c-0.5-3.3-5.4-2.2-4.7,0.9l-6.5,4.2v1.9l7.3-4.7c1.2,0.9,2.8,0.5,3.5-0.7
	l9.2,1.6c0.2,1.1,1.2,2,2.4,2c1.5,0,2.7-1.4,2.3-3l8.2-5.5c2.3,1.7,5.1-1.3,3.2-3.5l4.6-8.2c2,0.7,3.8-1.2,3-3.1l7.4-3.2V23.8z"/>
<polygon class="st4" points="47.2,38.4 40.8,43.2 34.4,38.4 34.4,24 47.2,24 "/>
<path class="st5" d="M41.4,33.4V35c0.6-0.1,0.9-0.4,0.9-0.8C42.3,33.9,42.1,33.6,41.4,33.4z M40.3,31.2v-1.6
	c-0.6,0.1-0.8,0.4-0.8,0.8C39.4,30.7,39.6,31,40.3,31.2z M40.8,27.3c0.4,0,0.6,0.3,0.6,0.6v0.2c0.7,0.1,1.2,0.3,1.8,0.6
	c0.2,0.1,0.4,0.4,0.4,0.7c0,0.5-0.4,0.8-0.8,0.8c-0.1,0-0.3,0-0.4-0.1c-0.3-0.2-0.7-0.3-1-0.4v1.8c1.8,0.5,2.6,1.2,2.6,2.6
	c0,1.4-1,2.2-2.6,2.4v0.6c0,0.4-0.3,0.6-0.6,0.6c-0.4,0-0.6-0.3-0.6-0.6v-0.7c-0.9-0.1-1.7-0.4-2.4-0.8c-0.3-0.2-0.4-0.4-0.4-0.7
	c0-0.5,0.4-0.8,0.8-0.8c0.2,0,0.3,0.1,0.5,0.2c0.5,0.3,1,0.6,1.6,0.7v-1.9c-1.8-0.5-2.6-1.1-2.6-2.6c0-1.3,1-2.2,2.5-2.4v-0.1
	C40.2,27.6,40.5,27.3,40.8,27.3z"/>
</svg>
