<?xml version="1.0" encoding="utf-8"?>
<!-- Generator: Adobe Illustrator 22.1.0, SVG Export Plug-In . SVG Version: 6.00 Build 0)  -->
<svg version="1.1" id="Layer_1" xmlns="http://www.w3.org/2000/svg" xmlns:xlink="http://www.w3.org/1999/xlink" x="0px" y="0px"
	 viewBox="0 0 88 88" style="enable-background:new 0 0 88 88;" xml:space="preserve">
<style type="text/css">
	.st0{fill:#E04F5F;}
	.st1{fill:#3E3E3F;}
	.st2{fill:#E2E4E5;}
	.st3{fill:#F0F1F1;}
	.st4{fill:#FFFFFF;}
	.st5{fill:#CFD3D4;}
	.st6{fill:#5B5C5F;}
	.st7{fill:#FBE158;}
	.st8{fill:#17B198;}
	.st9{fill:#4AC3AF;}
	.st10{fill:#FBEC9A;}
</style>
<circle class="st0" cx="44" cy="44" r="44"/>
<path class="st1" d="M69.6,59c0,1.3-1,2.3-2.3,2.3H20.7c-1.3,0-2.3-1-2.3-2.3V26.4c0-1.3,1-2.3,2.3-2.3h46.5c1.3,0,2.3,1,2.3,2.3V59
	z"/>
<rect x="37" y="61.3" class="st2" width="14" height="6"/>
<path class="st3" d="M55.6,68.4c0,0.6-0.5,1.2-1.2,1.2H33.5c-0.6,0-1.2-0.5-1.2-1.2c0-0.6,0.5-1.2,1.2-1.2h20.9
	C55.1,67.3,55.6,67.8,55.6,68.4z"/>
<path class="st4" d="M69.6,59v-7H18.4v7c0,1.3,1,2.3,2.3,2.3h46.5C68.6,61.3,69.6,60.3,69.6,59z"/>
<path class="st5" d="M44,55.3c-0.8,0-1.5,0.7-1.5,1.5c0,0.8,0.7,1.5,1.5,1.5s1.5-0.7,1.5-1.5C45.5,56,44.8,55.3,44,55.3z M44,59.9
	c-1.7,0-3.1-1.4-3.1-3.1c0-1.7,1.4-3.1,3.1-3.1s3.1,1.4,3.1,3.1C47.1,58.5,45.7,59.9,44,59.9z"/>
<path class="st6" d="M18.4,26.4V52h15.8l27.9-27.9H20.7C19.4,24.1,18.4,25.1,18.4,26.4z"/>
<path class="st7" d="M69.6,28.7c0-0.3,0-0.5-0.1-0.7l-7,8.1c-1.8-0.7-3.6,0.8-3.2,2.7L52,42.9c-0.8-0.7-1.8-0.8-2.7-0.3L41.4,36
	c0.6-1.6-0.6-3.3-2.2-3.3c-1.7,0-2.9,1.8-2.2,3.4l-9.6,9.6c-0.8-0.4-1.7-0.3-2.4,0.2l-6.6-4.8v2l5.7,4.1c-0.5,1.6,0.7,3.1,2.3,3.1
	c1.7,0,2.9-1.8,2.2-3.4l9.6-9.6c0.7,0.4,1.5,0.3,2.2-0.1l7.8,6.7c-0.6,1.6,0.6,3.3,2.2,3.3c1.5,0,2.6-1.3,2.4-2.8l7.3-4.2
	c2,1.8,5-0.7,3.6-3l5.9-6.8V28.7z"/>
<polygon class="st8" points="56,36 46.8,36 42.4,32 46.8,28 56,28 "/>
<polygon class="st9" points="56,28 46.8,28 42.4,32 46.8,36 49,36 56,29 "/>
<path class="st10" d="M26.4,50.3c1.7,0,2.9-1.8,2.2-3.4l9.6-9.6c0.7,0.4,1.5,0.3,2.2-0.1l4,3.4l1.1-1.1L41.4,36
	c0.6-1.6-0.6-3.3-2.2-3.3c-1.7,0-2.9,1.8-2.2,3.4l-9.6,9.6c-0.8-0.4-1.7-0.3-2.4,0.2l-6.6-4.8v2l5.7,4.1
	C23.6,48.9,24.8,50.3,26.4,50.3z"/>
<path class="st4" d="M51.2,32.4v1.3c0.5,0,0.7-0.3,0.7-0.6C51.9,32.8,51.8,32.6,51.2,32.4z M50.7,31.4v-1.3c-0.5,0-0.7,0.3-0.7,0.6
	C50,31.1,50.1,31.2,50.7,31.4z M51,29c0.2,0,0.3,0.1,0.3,0.3v0.2c0.4,0,0.8,0.2,1.1,0.4c0.1,0.1,0.2,0.2,0.2,0.3
	c0,0.2-0.2,0.4-0.4,0.4c-0.1,0-0.1,0-0.2-0.1c-0.2-0.2-0.5-0.3-0.7-0.3v1.4c1.1,0.3,1.6,0.7,1.6,1.5c0,0.8-0.6,1.3-1.5,1.4v0.4
	c0,0.2-0.1,0.3-0.3,0.3s-0.3-0.1-0.3-0.3v-0.4c-0.5-0.1-1-0.2-1.5-0.6C49,33.8,49,33.7,49,33.5c0-0.2,0.2-0.4,0.4-0.4
	c0.1,0,0.2,0,0.2,0.1c0.3,0.2,0.7,0.4,1.1,0.5v-1.4c-1.1-0.3-1.5-0.7-1.5-1.5c0-0.8,0.6-1.3,1.5-1.4v-0.2C50.6,29.1,50.8,29,51,29z"
	/>
</svg>
