<svg id="Layer_1" data-name="Layer 1" xmlns="http://www.w3.org/2000/svg" viewBox="0 0 88 88"><defs><style>.cls-1{fill:#32bea6;}.cls-2{fill:#fff;}.cls-3{fill:#facb1b;}.cls-4{fill:#f99134;}.cls-5{fill:#fa5655;}.cls-6{fill:#f3b607;}.cls-7{fill:#3e3e3f;}.cls-8{fill:#059bbf;}</style></defs><title>credit-card-icon</title><circle class="cls-1" cx="44" cy="44" r="44"/><path class="cls-2" d="M69.6,61.6A1.6,1.6,0,0,1,68,63.2H20a1.6,1.6,0,0,1-1.6-1.6v-32A1.6,1.6,0,0,1,20,28H68a1.6,1.6,0,0,1,1.6,1.6Z"/><path class="cls-3" d="M36.06,45.48A5.52,5.52,0,0,1,31.9,43.6a5.54,5.54,0,0,0,0-7.32,5.54,5.54,0,1,1,4.16,9.2Z"/><path class="cls-4" d="M31.9,43.6a5.54,5.54,0,0,1,0-7.32,5.54,5.54,0,0,1,0,7.32Z"/><path class="cls-5" d="M27.74,45.48a5.54,5.54,0,1,1,4.16-9.2,5.54,5.54,0,0,0,0,7.32A5.51,5.51,0,0,1,27.74,45.48Z"/><path class="cls-3" d="M64.8,42.4A1.6,1.6,0,0,1,63.2,44H54.4a1.6,1.6,0,0,1-1.6-1.6V36a1.6,1.6,0,0,1,1.6-1.6h8.8A1.6,1.6,0,0,1,64.8,36Z"/><path class="cls-6" d="M64.8,38.4V36.8H61.6A1.6,1.6,0,0,0,60,35.2H57.6A1.6,1.6,0,0,0,56,36.8H52.8v1.6H56V40H52.8v1.6H56a1.6,1.6,0,0,0,1.6,1.6H60a1.6,1.6,0,0,0,1.6-1.6h3.2V40H61.6V38.4Z"/><path class="cls-7" d="M24,58.61V58a.14.14,0,0,1,.16-.16c.11,0,.15.07.15.16v.8a.14.14,0,0,1-.15.16H22.92a.15.15,0,0,1-.16-.16.15.15,0,0,1,.16-.16h.47V56.77h-.47a.15.15,0,0,1-.16-.16.15.15,0,0,1,.16-.16h.79v2.16Z"/><path class="cls-7" d="M25.37,58.61h1.1a.14.14,0,0,1,.15.16.14.14,0,0,1-.15.16H25.05v-1a.32.32,0,0,1,.36-.37h.9v-.76h-1.1a.15.15,0,0,1-.16-.16.15.15,0,0,1,.16-.16h1.06a.36.36,0,0,1,.26.09.32.32,0,0,1,.09.28v.66a.32.32,0,0,1-.35.37h-.9Z"/><path class="cls-7" d="M27.5,56.77a.15.15,0,0,1-.16-.16.15.15,0,0,1,.16-.16h1.1a.32.32,0,0,1,.32.32v.61a.34.34,0,0,1-.13.31.35.35,0,0,1,.13.31v.61a.32.32,0,0,1-.32.32H27.5a.15.15,0,0,1-.16-.16.15.15,0,0,1,.16-.16h1.1v-.52c0-.18-.07-.24-.16-.24h-.62a.14.14,0,0,1-.16-.16.15.15,0,0,1,.16-.16h.62c.09,0,.16-.05.16-.23v-.53Z"/><path class="cls-7" d="M30.73,57.81v-.93a.15.15,0,0,1,.17-.16.15.15,0,0,1,.15.16v.93a.16.16,0,1,1,0,.31v.65c0,.11,0,.16-.15.16s-.17,0-.17-.16v-.65H29.8V56.61a.15.15,0,0,1,.16-.16c.12,0,.15.08.15.16v1.2Z"/><path class="cls-7" d="M34.85,57.53h.59a.36.36,0,0,1,.26.09.33.33,0,0,1,.1.28v.67a.33.33,0,0,1-.08.25.3.3,0,0,1-.28.11h-.71a.46.46,0,0,1-.2,0l-.12-.06c-.09,0-.19-.07-.19-.18a.16.16,0,0,1,.16-.16l.1,0,.09,0a.58.58,0,0,0,.17.06h.74v-.76h-.94v-1.4h1.1a.15.15,0,0,1,.16.16.15.15,0,0,1-.16.16h-.79Z"/><path class="cls-7" d="M36.84,58.12v.49h.93v-.49Zm0-.31H37.9c.16,0,.19.06.19.21v.71c0,.15-.06.2-.21.2H36.72c-.15,0-.2,0-.2-.2V56.61c0-.07,0-.16.13-.16h.19a.16.16,0,0,1,.15.16.14.14,0,0,1-.15.16Z"/><path class="cls-7" d="M39.13,56.77a.16.16,0,0,1-.32,0v-.16a.16.16,0,0,1,.16-.16h1.41v.93c0,.11,0,.12-.08.2l-.45.39c-.08.06-.09.07-.09.19v.61c0,.11,0,.16-.16.16a.14.14,0,0,1-.16-.16V58c0-.1,0-.11.09-.18l.44-.38c.1-.09.1-.09.1-.23v-.44Z"/><path class="cls-7" d="M42,57.53v-.76h-.3v.76Zm.31,1.08v-.76h-.93v.76Zm-.16-2.16a.15.15,0,0,1,.16.16v.92a.37.37,0,0,1,.24.09.32.32,0,0,1,.09.23v.76a.3.3,0,0,1-.33.32h-.93a.29.29,0,0,1-.32-.32v-.76a.32.32,0,0,1,.09-.23.34.34,0,0,1,.23-.09v-.92a.15.15,0,0,1,.16-.16Z"/><path class="cls-7" d="M46.94,57.27v-.5H46v.5Zm0,.32h-1.1a.16.16,0,0,1-.15-.16v-.82a.16.16,0,0,1,.15-.16H47.1a.16.16,0,0,1,.16.16v2.16a.16.16,0,0,1-.16.16h-.16a.16.16,0,0,1,0-.32Z"/><path class="cls-7" d="M48.91,57.53v-.76h-.29v.76Zm.32,1.08v-.76H48.3v.76Zm-.16-2.16a.15.15,0,0,1,.16.16v.92a.37.37,0,0,1,.24.09.36.36,0,0,1,.09.23v.76a.3.3,0,0,1-.33.32H48.3a.29.29,0,0,1-.32-.32v-.76a.32.32,0,0,1,.09-.23.32.32,0,0,1,.23-.09v-.92a.15.15,0,0,1,.16-.16Z"/><path class="cls-7" d="M50.59,56.77a.16.16,0,0,1-.32,0v-.16a.16.16,0,0,1,.16-.16h1.41v.93c0,.11,0,.12-.08.2l-.45.39c-.08.06-.08.07-.08.19v.61a.14.14,0,0,1-.16.16c-.12,0-.16,0-.16-.16V58a.17.17,0,0,1,.08-.18l.44-.38c.1-.09.1-.09.1-.23v-.44Z"/><path class="cls-7" d="M52.88,58.12v.49h.94v-.49Zm0-.31h1.06c.16,0,.2.06.2.21v.71c0,.15-.07.2-.21.2H52.77c-.15,0-.2,0-.2-.2V56.61c0-.07,0-.16.13-.16h.2a.15.15,0,0,1,.14.16.15.15,0,0,1-.16.16Z"/><path class="cls-7" d="M57.78,57.53h.59a.32.32,0,0,1,.25.09.33.33,0,0,1,.1.28v.67a.37.37,0,0,1-.07.25.31.31,0,0,1-.28.11h-.71a.54.54,0,0,1-.21,0l-.12-.06c-.09,0-.18-.07-.18-.18a.16.16,0,0,1,.15-.16.17.17,0,0,1,.1,0l.1,0a.49.49,0,0,0,.17.06h.73v-.76h-.93v-1.4h1.09a.15.15,0,0,1,.16.16.14.14,0,0,1-.16.16h-.78Z"/><path class="cls-7" d="M60.54,57.81v-.93a.14.14,0,0,1,.15-.16.15.15,0,0,1,.16.16v.93A.15.15,0,0,1,61,58c0,.11-.08.15-.17.15v.65c0,.11,0,.16-.16.16s-.15,0-.15-.16v-.65H59.6V56.61a.16.16,0,0,1,.32,0v1.2Z"/><path class="cls-7" d="M61.9,56.77a.15.15,0,0,1-.17-.16.15.15,0,0,1,.17-.16H63a.32.32,0,0,1,.32.32v.61a.37.37,0,0,1-.13.31.38.38,0,0,1,.13.31v.61a.32.32,0,0,1-.32.32H61.9a.15.15,0,0,1-.17-.16.15.15,0,0,1,.17-.16H63v-.52c0-.18-.07-.24-.16-.24h-.62a.14.14,0,0,1-.16-.16.15.15,0,0,1,.16-.16h.62c.09,0,.16-.05.16-.23v-.53Z"/><path class="cls-7" d="M64.34,58.61h1.1a.15.15,0,0,1,.16.16.15.15,0,0,1-.16.16H64v-1a.32.32,0,0,1,.36-.37h.89v-.76H64.19a.14.14,0,0,1-.16-.16.15.15,0,0,1,.16-.16h1a.35.35,0,0,1,.26.09.33.33,0,0,1,.1.28v.66a.33.33,0,0,1-.1.28.31.31,0,0,1-.26.09h-.9Z"/><path class="cls-8" d="M21.87,52h0a1.63,1.63,0,0,1,1.66-1.66,1.72,1.72,0,0,1,1.1.36.3.3,0,0,1,.11.23.28.28,0,0,1-.28.27.26.26,0,0,1-.17,0,1.16,1.16,0,0,0-.77-.29A1.07,1.07,0,0,0,22.47,52h0a1.08,1.08,0,0,0,1.05,1.14,1.17,1.17,0,0,0,.81-.31.24.24,0,0,1,.17-.06.26.26,0,0,1,.26.26.25.25,0,0,1-.09.2A1.67,1.67,0,0,1,21.87,52Z"/><path class="cls-8" d="M26.79,52c.4,0,.66-.21.66-.54h0c0-.34-.25-.53-.67-.53H26V52ZM25.4,50.67a.27.27,0,0,1,.28-.28h1.15a1.32,1.32,0,0,1,.93.32,1,1,0,0,1,.26.69h0a.94.94,0,0,1-.73,1l.62.78a.29.29,0,0,1,.09.21.26.26,0,0,1-.27.26.35.35,0,0,1-.28-.14l-.77-1H26v.86a.28.28,0,0,1-.29.28.27.27,0,0,1-.28-.28Z"/><path class="cls-8" d="M28.72,53.32V50.67a.27.27,0,0,1,.28-.28h1.87a.25.25,0,1,1,0,.5H29.28v.84h1.38a.25.25,0,1,1,0,.5H29.28v.86h1.61a.26.26,0,0,1,.26.26.26.26,0,0,1-.26.25H29A.27.27,0,0,1,28.72,53.32Z"/><path class="cls-8" d="M33,53.09A1.05,1.05,0,0,0,34.1,52h0A1.05,1.05,0,0,0,33,50.9h-.64v2.19Zm-1.2-2.42a.27.27,0,0,1,.28-.28H33A1.59,1.59,0,0,1,34.69,52h0A1.6,1.6,0,0,1,33,53.6h-.92a.27.27,0,0,1-.28-.28Z"/><path class="cls-8" d="M35.41,50.65a.28.28,0,1,1,.56,0v2.69a.28.28,0,0,1-.56,0Z"/><path class="cls-8" d="M37.62,50.91h-.78a.26.26,0,1,1,0-.52H39a.26.26,0,0,1,0,.52h-.78v2.43a.29.29,0,0,1-.57,0Z"/><path class="cls-8" d="M41,52h0a1.63,1.63,0,0,1,1.66-1.66,1.68,1.68,0,0,1,1.1.36.31.31,0,0,1,.12.23.28.28,0,0,1-.29.27.23.23,0,0,1-.16,0,1.18,1.18,0,0,0-.77-.29A1.08,1.08,0,0,0,41.63,52h0a1.08,1.08,0,0,0,1.06,1.14,1.13,1.13,0,0,0,.8-.31.24.24,0,0,1,.17-.06.27.27,0,0,1,.27.26.25.25,0,0,1-.09.2,1.65,1.65,0,0,1-1.17.44A1.62,1.62,0,0,1,41,52Z"/><path class="cls-8" d="M46.48,52.32,45.92,51l-.57,1.3Zm-2.1.91,1.19-2.66a.37.37,0,0,1,.34-.23h0a.37.37,0,0,1,.34.23l1.19,2.66a.3.3,0,0,1,0,.12.26.26,0,0,1-.27.27.29.29,0,0,1-.27-.19l-.26-.61H45.14l-.27.62a.27.27,0,0,1-.27.18.26.26,0,0,1-.26-.26A.38.38,0,0,1,44.38,53.23Z"/><path class="cls-8" d="M49.5,52c.4,0,.66-.21.66-.54h0c0-.34-.25-.53-.66-.53h-.83V52Zm-1.39-1.31a.28.28,0,0,1,.29-.28h1.14a1.32,1.32,0,0,1,.93.32,1,1,0,0,1,.26.69h0a.94.94,0,0,1-.73,1l.62.78a.29.29,0,0,1,.09.21.26.26,0,0,1-.27.26.35.35,0,0,1-.28-.14l-.77-1h-.71v.86a.28.28,0,0,1-.28.28.28.28,0,0,1-.29-.28Z"/><path class="cls-8" d="M52.62,53.09A1.05,1.05,0,0,0,53.74,52h0a1.05,1.05,0,0,0-1.12-1.09H52v2.19Zm-1.19-2.42a.27.27,0,0,1,.28-.28h.91A1.6,1.6,0,0,1,54.33,52h0a1.61,1.61,0,0,1-1.71,1.61h-.91a.27.27,0,0,1-.28-.28Z"/></svg>