<?xml version="1.0" encoding="utf-8"?>
<!-- Generator: Adobe Illustrator 22.1.0, SVG Export Plug-In . SVG Version: 6.00 Build 0)  -->
<svg version="1.1" id="Layer_1" xmlns="http://www.w3.org/2000/svg" xmlns:xlink="http://www.w3.org/1999/xlink" x="0px" y="0px"
	 viewBox="0 0 88 88" style="enable-background:new 0 0 88 88;" xml:space="preserve">
<style type="text/css">
	.st0{fill:#25B7D3;}
	.st1{fill:#FBC8C8;}
	.st2{fill:#FBD7D7;}
	.st3{fill:#84462D;}
	.st4{fill:#9C6144;}
	.st5{fill:#FACB1B;}
	.st6{fill:#FBE158;}
	.st7{fill:#692E19;}
</style>
<circle class="st0" cx="44" cy="44" r="44"/>
<path class="st1" d="M69.6,44.8c0-0.6-1.3-0.7-1.6-0.2c-0.6,1-0.8,2.4-3.5,2.6C61.4,25.3,35,30.7,31.2,37.6c-5.6-4-9.6-2.4-9.6-2.4
	c0,3.2,1.6,7.2,3.2,8.6c-0.1,0.1-0.1,0.1-0.2,0.2h-4.1c-1.2,0-2.1,0.9-2.1,2.1v5.4c0,1.2,0.9,2.1,2.1,2.1h-0.1c2.1,0,4,1.3,4.8,3.2
	c1.1,2.5,3,4.7,5.4,6.3l-1.7,4.3c-0.2,0.5-0.1,1.1,0.2,1.5c0.3,0.4,0.8,0.7,1.3,0.7h3.3c0.5,0,0.9-0.2,1.2-0.6l2.4-3
	c1.2,0.2,2.4,0.4,3.5,0.4H48c0.7,0,1.4-0.1,2.1-0.1l2.2,2.7c0.3,0.4,0.8,0.6,1.2,0.6h3.3c0.5,0,1-0.3,1.3-0.7c0.3-0.4,0.4-1,0.2-1.5
	l-1.4-3.5c3.8-2.3,6.7-6,7.6-10.3C69,53.2,69.6,48.7,69.6,44.8z"/>
<path class="st2" d="M31.2,37.6c-5.6-4-9.6-2.4-9.6-2.4c0,3.2,1.6,7.2,3.2,8.6c-0.1,0.1-0.1,0.1-0.2,0.2h-4.1
	c-1.2,0-2.1,0.9-2.1,2.1v5.4c0,2.4,2.8,2.1,2,2.1c2.1,0,4,1.3,4.8,3.2c0.7,1.6,1.7,3.1,3.1,4.4l27.5-27.5
	C46.8,28.9,33.8,32.9,31.2,37.6z"/>
<path class="st3" d="M55.9,37.6c-0.1-0.2-0.2-0.4-0.4-0.5c-0.8-0.3-1.5-0.6-2.3-0.9l-1.9,1.9c0.9,0.2,1.7,0.5,2.6,0.9
	c0.8,0.3,1.7,0,2-0.8C56,38.1,56,37.8,55.9,37.6z"/>
<path class="st4" d="M36,37.1c-0.2,0.1-0.4,0.3-0.4,0.5c-0.1,0.2-0.1,0.4,0,0.7c0.4,0.8,1.3,1.1,2.1,0.7c4.4-1.9,8.9-2.1,13.6-0.8
	l1.9-1.9C47.3,34.3,41.5,34.6,36,37.1z"/>
<path class="st5" d="M52.8,26.8c0,4.6-3.8,8.4-8.4,8.4c-4.6,0-8.4-3.8-8.4-8.4c0-4.6,3.8-8.4,8.4-8.4C49,18.4,52.8,22.2,52.8,26.8z"
	/>
<path class="st6" d="M44.4,18.4c-4.6,0-8.4,3.8-8.4,8.4c0,2.3,0.9,4.4,2.5,5.9l11.9-11.9C48.8,19.3,46.7,18.4,44.4,18.4z"/>
<path class="st3" d="M45.1,27.5V30c0.9-0.1,1.4-0.6,1.4-1.2C46.5,28.2,46.2,27.8,45.1,27.5z M44,25.5V23c-0.9,0.1-1.4,0.6-1.4,1.2
	C42.6,24.8,42.9,25.1,44,25.5z M44.5,20.7c0.3,0,0.6,0.3,0.6,0.6v0.3c0.8,0.1,1.5,0.4,2.2,0.8c0.2,0.1,0.4,0.3,0.4,0.7
	c0,0.4-0.4,0.8-0.8,0.8c-0.1,0-0.3,0-0.4-0.1c-0.5-0.3-1-0.5-1.5-0.6v2.7c2.1,0.5,3.1,1.4,3.1,2.9c0,1.6-1.2,2.6-3,2.8v0.8
	c0,0.3-0.3,0.6-0.6,0.6s-0.6-0.3-0.6-0.6v-0.9c-1.1-0.1-2-0.5-2.9-1.1c-0.2-0.2-0.4-0.4-0.4-0.7c0-0.4,0.3-0.8,0.8-0.8
	c0.2,0,0.3,0.1,0.5,0.2c0.7,0.5,1.3,0.8,2.1,0.9v-2.8c-2.1-0.5-3-1.3-3-2.9c0-1.5,1.2-2.6,3-2.7v-0.3C43.9,21,44.2,20.7,44.5,20.7z"
	/>
<path class="st4" d="M41.9,29c-0.1-0.1-0.3-0.2-0.5-0.2c-0.4,0-0.8,0.3-0.8,0.8c0,0.3,0.1,0.5,0.3,0.6l1.1-1.1
	C42,29.1,41.9,29.1,41.9,29z"/>
<path class="st4" d="M44,23v2.5c-1.1-0.4-1.4-0.7-1.4-1.3C42.6,23.6,43.1,23.1,44,23z M41,24.3c0,1.6,1,2.4,3,2.9v0l1.3-1.3
	c-0.1,0-0.1,0-0.2-0.1v-2.7c0.5,0.1,1,0.3,1.5,0.6c0.1,0.1,0.3,0.1,0.4,0.1c0.4,0,0.8-0.3,0.8-0.8c0-0.3-0.2-0.6-0.4-0.7
	c-0.6-0.4-1.4-0.7-2.2-0.8v-0.3c0-0.3-0.3-0.6-0.6-0.6c-0.3,0-0.6,0.3-0.6,0.6v0.3C42.2,21.7,41,22.8,41,24.3z"/>
<path class="st7" d="M31.5,43.2c-0.8,0-1.6,0.5-1.9,1.3l0.2,0.1l1.1,0.6l-1.1,0.6l-0.2,0.1c0.3,0.8,1,1.3,1.9,1.3c1.1,0,2-0.9,2-2
	C33.5,44.1,32.6,43.2,31.5,43.2z"/>
</svg>
