<svg id="Layer_1" data-name="Layer 1" xmlns="http://www.w3.org/2000/svg" viewBox="0 0 88 88"><defs><style>.cls-1{fill:#25b7d3;}.cls-2{fill:#fff;}.cls-3{fill:#cfd3d4;}.cls-4{fill:#3e3e3f;}.cls-5{fill:#f37a10;}.cls-6{fill:#f99134;}</style></defs><title>stocks-icon</title><circle class="cls-1" cx="44" cy="44" r="44"/><rect class="cls-2" x="21.6" y="24.8" width="44.8" height="28.8"/><rect class="cls-3" x="21.6" y="48.8" width="44.8" height="0.8"/><rect class="cls-3" x="21.6" y="42.4" width="44.8" height="0.8"/><rect class="cls-3" x="21.6" y="36" width="44.8" height="0.8"/><rect class="cls-3" x="21.6" y="29.6" width="44.8" height="0.8"/><path class="cls-4" d="M68.8,21.6H45.6V20a1.6,1.6,0,0,0-3.2,0v1.6H19.2a.8.8,0,0,0-.8.8V24a.8.8,0,0,0,.8.8H68.8a.8.8,0,0,0,.8-.8V22.4A.8.8,0,0,0,68.8,21.6Z"/><path class="cls-4" d="M68.8,53.6H19.2a.8.8,0,0,0-.8.8V56a.8.8,0,0,0,.8.8H42.4V60l-6.31,7.58A1.23,1.23,0,0,0,38,69.17L42.4,64v4a1.6,1.6,0,1,0,3.2,0V64L50,69.17a1.24,1.24,0,0,0,.94.43,1.26,1.26,0,0,0,1.12-.71,1.23,1.23,0,0,0-.18-1.31L45.6,60V56.8H68.8a.8.8,0,0,0,.8-.8V54.4A.8.8,0,0,0,68.8,53.6Z"/><path class="cls-5" d="M58.4,28.8A3.2,3.2,0,0,0,55.2,32a3.16,3.16,0,0,0,1.23,2.5l-2,4.26A2,2,0,0,0,52.13,40H47.07a2,2,0,0,0-3.8,1.2l-4.69,4.7a1.92,1.92,0,0,0-1.64-.2l-5.78-8.1a2,2,0,1,0-3.91,0L21.6,42.07v2l6.59-5.18a2,2,0,0,0,2,0l5.58,7.82a2,2,0,1,0,3.78.45l4.76-4.76A2,2,0,0,0,47,41.6h5.24a2,2,0,1,0,3.54-1.83l2.12-4.62a3.2,3.2,0,1,0,.52-6.35Z"/><path class="cls-6" d="M30.15,39l4.6,6.44,1.15-1.15L31.16,37.6a2,2,0,1,0-3.91,0L21.6,42.07v2l6.59-5.18A1.94,1.94,0,0,0,30.15,39Z"/></svg>