<?xml version="1.0" encoding="utf-8"?>
<!-- Generator: Adobe Illustrator 22.1.0, SVG Export Plug-In . SVG Version: 6.00 Build 0)  -->
<svg version="1.1" id="Layer_1" xmlns="http://www.w3.org/2000/svg" xmlns:xlink="http://www.w3.org/1999/xlink" x="0px" y="0px"
	 viewBox="0 0 88 88" style="enable-background:new 0 0 88 88;" xml:space="preserve">
<style type="text/css">
	.st0{fill:#FABC3D;}
	.st1{fill:#3E3E3F;}
	.st2{fill:#E2E4E5;}
	.st3{fill:#FFFFFF;}
	.st4{fill:#DF2C2C;}
	.st5{fill:#FACB1B;}
	.st6{fill:#FA5655;}
	.st7{fill:#FCE87E;}
	.st8{fill:#5B5C5F;}
	.st9{fill:#F79392;}
</style>
<circle class="st0" cx="44" cy="44" r="44"/>
<path class="st1" d="M68.1,28c0-0.3-0.2-0.6-0.5-0.8l-23.3-8.7c-0.2-0.1-0.4-0.1-0.6,0l-23.3,8.7c-0.3,0.1-0.5,0.4-0.5,0.8
	c0,0.3,0.2,0.6,0.5,0.7l10.8,4.1v5.7c2,2.9,7.4,4.5,12.8,4.6c5.4-0.1,10.8-1.8,12.8-4.6v-5.7l8-3v8.7h1.6v-9.3l1.2-0.5
	C67.9,28.7,68.1,28.4,68.1,28z"/>
<path class="st2" d="M69.6,56.9c-0.2,1.9-1.3,5.3-3.2,7.2L44,60.9l-22.4,3.2c-1.9-1.9-2.9-5.3-3.2-7.2c-0.1-0.5-0.1-1.1,0-1.6
	c0.2-1.9,1.3-5.3,3.2-7.2L44,51.3l22.4-3.2c1.9,1.9,2.9,5.3,3.2,7.2C69.6,55.8,69.6,56.3,69.6,56.9z"/>
<path class="st3" d="M21.6,48.1c-1.9,1.9-2.9,5.3-3.2,7.2h51.1c-0.2-1.9-1.3-5.3-3.2-7.2L44,51.3L21.6,48.1z"/>
<path class="st1" d="M46.6,60.7c-0.4,1-1.4,1.7-2.6,1.7s-2.2-0.7-2.6-1.7c-0.3,0.1-0.7,0.2-1.1,0.2l-1.1,7.9l4.8-3.9l4.8,3.9
	l-1.5-7.9C47,60.9,46.8,60.8,46.6,60.7z"/>
<path class="st4" d="M52,54.5c0-1.2-0.7-2.2-1.7-2.6c0.4-1,0.2-2.2-0.6-3.1c-0.8-0.8-2-1-3.1-0.6c-0.4-1-1.4-1.7-2.6-1.7
	s-2.2,0.7-2.6,1.7c-1-0.4-2.2-0.2-3.1,0.6c-0.8,0.8-1,2-0.6,3.1c-1,0.4-1.7,1.4-1.7,2.6c0,1.2,0.7,2.2,1.7,2.6
	c-0.4,1-0.2,2.2,0.6,3.1c0.8,0.8,2,1,3.1,0.6c0.4,1,1.4,1.7,2.6,1.7s2.2-0.7,2.6-1.7c1,0.4,2.2,0.2,3.1-0.6c0.8-0.8,1-2,0.6-3.1
	C51.3,56.7,52,55.7,52,54.5z"/>
<rect x="64.8" y="38.4" class="st5" width="1.6" height="1.6"/>
<polygon class="st1" points="68,45.7 66.4,40.1 64.8,40.1 63.2,45.7 "/>
<path class="st6" d="M48.7,54.5c0,2.6-2.1,4.7-4.7,4.7s-4.7-2.1-4.7-4.7c0-2.6,2.1-4.7,4.7-4.7S48.7,51.9,48.7,54.5z"/>
<rect x="64.8" y="38.4" class="st7" width="0.8" height="1.6"/>
<polygon class="st8" points="65.6,40.1 64.8,40.1 63.2,45.7 65.6,45.7 "/>
<path class="st6" d="M46.6,48.2c-0.4-1-1.4-1.7-2.6-1.7s-2.2,0.7-2.6,1.7c-1-0.4-2.2-0.2-3.1,0.6c-0.8,0.8-1,2-0.6,3.1
	c-1,0.4-1.7,1.4-1.7,2.6c0,1.2,0.7,2.2,1.7,2.6c-0.4,1-0.2,2.2,0.6,3.1l11.3-11.3C48.8,48,47.6,47.8,46.6,48.2z"/>
<path class="st9" d="M44,49.7c-2.6,0-4.7,2.1-4.7,4.7c0,1.3,0.5,2.5,1.4,3.3l6.7-6.7C46.5,50.3,45.3,49.7,44,49.7z"/>
<path class="st8" d="M31.2,32.8v5.7c2,2.9,7.4,4.5,12.8,4.6v-5.5c-0.1,0-0.2,0-0.3,0L31.2,32.8z"/>
<path class="st8" d="M43.7,18.5l-23.3,8.7c-0.3,0.1-0.5,0.4-0.5,0.8c0,0.3,0.2,0.6,0.5,0.7l23.3,8.7c0.1,0,0.2,0,0.3,0V18.5
	C43.9,18.5,43.8,18.5,43.7,18.5z"/>
</svg>
