<?xml version="1.0" encoding="utf-8"?>
<!-- Generator: Adobe Illustrator 22.1.0, SVG Export Plug-In . SVG Version: 6.00 Build 0)  -->
<svg version="1.1" id="Layer_1" xmlns="http://www.w3.org/2000/svg" xmlns:xlink="http://www.w3.org/1999/xlink" x="0px" y="0px"
	 viewBox="0 0 88 88" style="enable-background:new 0 0 88 88;" xml:space="preserve">
<style type="text/css">
	.st0{fill:#E04F5F;}
	.st1{fill:#4AC3AF;}
	.st2{fill:#8CE3D4;}
	.st3{fill:#0D9681;}
	.st4{fill:#C2F8F0;}
	.st5{fill:#17B198;}
	.st6{fill:#FFFFFF;}
	.st7{fill:#FBE158;}
</style>
<circle class="st0" cx="44" cy="44" r="44"/>
<rect x="18.4" y="55.2" class="st1" width="51.2" height="14.4"/>
<polygon class="st2" points="18.4,55.2 24.8,42.4 63.2,42.4 69.6,55.2 "/>
<polygon class="st3" points="22.4,53.6 27.2,44 60.8,44 65.6,53.6 "/>
<circle class="st4" cx="56.8" cy="48.8" r="0.8"/>
<circle class="st4" cx="31.2" cy="48.8" r="0.8"/>
<ellipse class="st4" cx="44" cy="48.8" rx="4.8" ry="4"/>
<path class="st5" d="M44.3,49.1V50c0.4,0,0.5-0.2,0.5-0.4C44.9,49.4,44.7,49.2,44.3,49.1z M43.6,48v-0.8c-0.4,0-0.5,0.2-0.5,0.4
	C43.1,47.8,43.2,47.9,43.6,48z M44,46c0.2,0,0.4,0.1,0.4,0.3v0.1c0.4,0.1,0.8,0.1,1.1,0.3c0.1,0.1,0.3,0.2,0.3,0.4
	c0,0.2-0.2,0.4-0.5,0.4c-0.1,0-0.2,0-0.3-0.1c-0.2-0.1-0.4-0.2-0.6-0.2v1c1.1,0.3,1.6,0.6,1.6,1.3c0,0.7-0.6,1.2-1.6,1.2v0.3
	c0,0.2-0.2,0.3-0.4,0.3c-0.2,0-0.4-0.1-0.4-0.3v-0.3c-0.5-0.1-1-0.2-1.5-0.4c-0.2-0.1-0.3-0.2-0.3-0.4c0-0.2,0.2-0.4,0.5-0.4
	c0.1,0,0.2,0,0.3,0.1c0.3,0.2,0.6,0.3,1,0.4v-1c-1.1-0.2-1.6-0.6-1.6-1.3c0-0.7,0.6-1.2,1.6-1.2v-0.1C43.6,46.1,43.8,46,44,46z"/>
<rect x="18.4" y="56.8" class="st4" width="51.2" height="1.6"/>
<rect x="18.4" y="60" class="st4" width="51.2" height="1.6"/>
<rect x="18.4" y="63.2" class="st4" width="51.2" height="1.6"/>
<rect x="18.4" y="66.4" class="st4" width="51.2" height="1.6"/>
<polygon class="st2" points="18.4,56.8 35.6,56.8 37.2,55.2 18.4,55.2 "/>
<polygon class="st2" points="18.4,60 32.4,60 34,58.4 18.4,58.4 "/>
<polygon class="st2" points="18.4,68 18.4,69.6 22.8,69.6 24.4,68 "/>
<polygon class="st2" points="18.4,63.2 29.2,63.2 30.8,61.6 18.4,61.6 "/>
<polygon class="st2" points="18.4,66.4 26,66.4 27.6,64.8 18.4,64.8 "/>
<polygon class="st4" points="18.4,55.2 37.2,55.2 38.8,53.6 22.4,53.6 27.2,44 48.4,44 50,42.4 24.8,42.4 "/>
<path class="st5" d="M31.2,49.6c-0.4,0-0.8-0.4-0.8-0.8c0-0.4,0.4-0.8,0.8-0.8c0.4,0,0.8,0.4,0.8,0.8C32,49.2,31.6,49.6,31.2,49.6z
	 M39.2,48.8c0-2.2,2.1-4,4.8-4c1.1,0,2,0.3,2.8,0.8l1.6-1.6H27.2l-4.8,9.6h16.4l1.9-1.9C39.8,51,39.2,49.9,39.2,48.8z"/>
<circle class="st6" cx="31.2" cy="48.8" r="0.8"/>
<path class="st6" d="M39.2,48.8c0,1.1,0.6,2.2,1.5,2.9l1.4-1.4c-0.1-0.1-0.2-0.2-0.2-0.4c0-0.2,0.2-0.4,0.5-0.4c0.1,0,0.2,0,0.3,0.1
	c0,0,0.1,0,0.1,0l0.7-0.7c-1-0.2-1.5-0.6-1.5-1.3c0-0.7,0.6-1.2,1.6-1.2v-0.1c0-0.2,0.2-0.3,0.4-0.3c0.2,0,0.4,0.1,0.4,0.3v0.1
	c0.4,0.1,0.8,0.1,1.1,0.3c0.1,0,0.1,0.1,0.1,0.1l1.2-1.2c-0.8-0.5-1.8-0.8-2.8-0.8C41.3,44.8,39.2,46.6,39.2,48.8z"/>
<path class="st6" d="M44.3,47.2v0.8l0.6-0.6c0,0,0,0,0,0C44.7,47.4,44.5,47.3,44.3,47.2z"/>
<path class="st6" d="M43.1,47.6c0,0.2,0.1,0.3,0.5,0.5v-0.8C43.3,47.2,43.1,47.4,43.1,47.6z"/>
<polygon class="st6" points="18.4,58.4 34,58.4 35.6,56.8 18.4,56.8 "/>
<polygon class="st6" points="18.4,61.6 30.8,61.6 32.4,60 18.4,60 "/>
<polygon class="st6" points="18.4,64.8 27.6,64.8 29.2,63.2 18.4,63.2 "/>
<polygon class="st6" points="18.4,68 24.4,68 26,66.4 18.4,66.4 "/>
<polygon class="st7" points="55.7,22.9 59.1,26.3 52,33.4 44,25.4 27,42.4 33.8,42.4 44,32.2 52,40.2 62.5,29.7 65.9,33.1 
	69.6,19.2 "/>
</svg>
