<?xml version="1.0" encoding="utf-8"?>
<!-- Generator: Adobe Illustrator 22.1.0, SVG Export Plug-In . SVG Version: 6.00 Build 0)  -->
<svg version="1.1" id="Layer_1" xmlns="http://www.w3.org/2000/svg" xmlns:xlink="http://www.w3.org/1999/xlink" x="0px" y="0px"
	 viewBox="0 0 88 88" style="enable-background:new 0 0 88 88;" xml:space="preserve">
<style type="text/css">
	.st0{fill:#8E8E8E;}
	.st1{fill:#3B3B3B;}
	.st2{fill:#626262;}
	.st3{fill:#A3A3A3;}
	.st4{fill:#FFFFFF;}
	.st5{fill:#BCBCBC;}
	.st6{fill:#3E3E3E;}
	.st7{fill:#878787;}
	.st8{fill:#C6C6C6;}
	.st9{fill:#DADADA;}
	.st10{fill:#9F9F9F;}
</style>
<circle class="st0" cx="44" cy="44" r="44"/>
<path class="st1" d="M63.2,40.8c1.5,1.3,6.3,0,6.3-2.7c0-2.9-5.6-3-6.9,0.3l-2.5-10c-0.5-2.1-2.5-3.6-4.7-3.6H32.6
	c-2.2,0-4.1,1.5-4.7,3.6l-2.5,10c-1.2-3.3-6.9-3.2-6.9-0.3c0,2.7,4.8,4,6.3,2.7c-7,5.6-8,13-4.2,20.6c0.5,1.1,1.7,1.8,2.9,1.8h41.1
	c1.2,0,2.3-0.7,2.9-1.8C71.4,53.2,69.5,45.6,63.2,40.8z"/>
<path class="st2" d="M32.6,24.8c-2.2,0-4.1,1.5-4.7,3.6l-2.5,10c-1.2-3.3-6.9-3.2-6.9-0.3c0,2.7,4.8,4,6.3,2.7
	c-4.9,3.9-6.9,8.8-6.3,13.9l29.9-29.9C48.4,24.8,32.6,24.8,32.6,24.8z"/>
<path class="st3" d="M30.1,40.8c-0.5,0-1-0.2-1.3-0.6c-0.3-0.4-0.4-0.9-0.3-1.4l2.1-8.4C31,29,32.2,28,33.7,28h20.6
	c1.5,0,2.7,1,3.1,2.4l2.1,8.4c0.1,0.5,0,1-0.3,1.4s-0.8,0.6-1.3,0.6H30.1z"/>
<polygon class="st4" points="36.8,40.8 34.4,47.2 42.4,47.2 43.2,40.8 "/>
<polygon class="st4" points="51.2,40.8 53.6,47.2 45.6,47.2 44.8,40.8 "/>
<path class="st5" d="M30.6,30.5l-2.1,8.4c-0.1,0.5,0,1,0.3,1.4s0.8,0.6,1.3,0.6h2.4L45.2,28H33.7C32.2,28,31,29,30.6,30.5z"/>
<path class="st6" d="M28,68c0,0.9-0.7,1.6-1.6,1.6h-3.2c-0.9,0-1.6-0.7-1.6-1.6v-5.6H28V68z"/>
<path class="st6" d="M66.4,68c0,0.9-0.7,1.6-1.6,1.6h-3.2c-0.9,0-1.6-0.7-1.6-1.6v-5.6h6.4V68z"/>
<path class="st7" d="M23.5,63.2c-1.2,0-2.3-0.7-2.9-1.8c-1.5-2.9-2.7-7.1-1.9-10.5c0.5-2.2,2.4-3.7,4.7-3.7h41.4
	c2.2,0,4.1,1.5,4.7,3.7c0.8,3.2-0.4,7.6-1.9,10.6c-0.5,1.1-1.7,1.8-2.9,1.8L23.5,63.2L23.5,63.2z"/>
<path class="st6" d="M21.6,53.6c0,1.8,1.4,3.2,3.2,3.2h38.4c1.8,0,3.2-1.4,3.2-3.2s-1.4-3.2-3.2-3.2H24.8
	C23,50.4,21.6,51.9,21.6,53.6z"/>
<path class="st8" d="M28,53.6c0,1.3-1.1,2.4-2.4,2.4s-2.4-1.1-2.4-2.4c0-1.3,1.1-2.4,2.4-2.4C26.9,51.2,28,52.3,28,53.6z"/>
<path class="st8" d="M33.6,53.6c0,1.3-1.1,2.4-2.4,2.4c-1.3,0-2.4-1.1-2.4-2.4c0-1.3,1.1-2.4,2.4-2.4C32.5,51.2,33.6,52.3,33.6,53.6
	z"/>
<path class="st8" d="M59.2,53.6c0,1.3-1.1,2.4-2.4,2.4c-1.3,0-2.4-1.1-2.4-2.4c0-1.3,1.1-2.4,2.4-2.4C58.1,51.2,59.2,52.3,59.2,53.6
	z"/>
<path class="st8" d="M64.8,53.6c0,1.3-1.1,2.4-2.4,2.4S60,55,60,53.6c0-1.3,1.1-2.4,2.4-2.4C63.7,51.2,64.8,52.3,64.8,53.6z"/>
<path class="st4" d="M26.4,60c0,0.9-0.7,1.6-1.6,1.6s-1.6-0.7-1.6-1.6c0-0.9,0.7-1.6,1.6-1.6S26.4,59.1,26.4,60z"/>
<path class="st4" d="M64.8,60c0,0.9-0.7,1.6-1.6,1.6s-1.6-0.7-1.6-1.6c0-0.9,0.7-1.6,1.6-1.6C64.1,58.4,64.8,59.1,64.8,60z"/>
<polygon class="st1" points="28,63.2 31.2,60 56.8,60 60,63.2 "/>
<path class="st9" d="M25.6,51.2c-1.3,0-2.4,1.1-2.4,2.4c0,0.7,0.3,1.3,0.8,1.7l3.4-3.4C26.9,51.5,26.3,51.2,25.6,51.2z"/>
<path class="st9" d="M31.2,51.2c-1.3,0-2.4,1.1-2.4,2.4c0,0.7,0.3,1.3,0.8,1.7l3.4-3.4C32.5,51.5,31.9,51.2,31.2,51.2z"/>
<path class="st9" d="M56.8,51.2c-1.3,0-2.4,1.1-2.4,2.4c0,0.7,0.3,1.3,0.8,1.7l3.4-3.4C58.1,51.5,57.5,51.2,56.8,51.2z"/>
<path class="st9" d="M62.4,51.2c-1.3,0-2.4,1.1-2.4,2.4c0,0.7,0.3,1.3,0.8,1.7l3.4-3.4C63.7,51.5,63.1,51.2,62.4,51.2z"/>
<path class="st10" d="M52,52c0,0.4-0.4,0.8-0.8,0.8H36.8c-0.4,0-0.8-0.4-0.8-0.8s0.4-0.8,0.8-0.8h14.4C51.6,51.2,52,51.6,52,52z"/>
<path class="st10" d="M52,55.2c0,0.4-0.4,0.8-0.8,0.8H36.8c-0.4,0-0.8-0.4-0.8-0.8c0-0.4,0.4-0.8,0.8-0.8h14.4
	C51.6,54.4,52,54.8,52,55.2z"/>
</svg>
