<?xml version="1.0" encoding="utf-8"?>
<!-- Generator: Adobe Illustrator 22.1.0, SVG Export Plug-In . SVG Version: 6.00 Build 0)  -->
<svg version="1.1" id="Layer_1" xmlns="http://www.w3.org/2000/svg" xmlns:xlink="http://www.w3.org/1999/xlink" x="0px" y="0px"
	 viewBox="0 0 88 88" style="enable-background:new 0 0 88 88;" xml:space="preserve">
<style type="text/css">
	.st0{fill:#81D2EB;}
	.st1{fill:#0C333D;}
	.st2{fill:#0F6175;}
	.st3{fill:#009FC7;}
	.st4{fill:#E1F5FA;}
	.st5{fill:#FFFFFF;}
</style>
<circle class="st0" cx="44" cy="44" r="44"/>
<path class="st1" d="M40.3,53.9L26.1,68.1c-1.8,1.8-4.6,1.8-6.4,0c-1.8-1.8-1.8-4.6,0-6.4L34,47.5C35.5,50.1,37.7,52.3,40.3,53.9z"
	/>
<path class="st2" d="M36.7,51l-17,17c-1.7-1.8-1.7-4.6,0-6.3L34,47.5C34.7,48.8,35.7,50,36.7,51z"/>
<path class="st3" d="M69.6,37.6c0,10.6-8.6,19.2-19.2,19.2c-10.6,0-19.2-8.7-19.2-19.2c0-10.6,8.6-19.2,19.2-19.2
	C61,18.4,69.6,27,69.6,37.6z"/>
<path class="st4" d="M65.6,37.6c0,8.4-6.8,15.2-15.2,15.2c-8.4,0-15.2-6.8-15.2-15.2c0-8.4,6.8-15.2,15.2-15.2
	C58.8,22.4,65.6,29.2,65.6,37.6z"/>
<path class="st5" d="M35.2,37.6c0-8.4,6.8-15.2,15.2-15.2c4.1,0,7.9,1.6,10.6,4.3L39.5,48.2C36.8,45.5,35.2,41.7,35.2,37.6z"/>
</svg>
