<?xml version="1.0" encoding="utf-8"?>
<!-- Generator: Adobe Illustrator 22.1.0, SVG Export Plug-In . SVG Version: 6.00 Build 0)  -->
<svg version="1.1" id="Layer_1" xmlns="http://www.w3.org/2000/svg" xmlns:xlink="http://www.w3.org/1999/xlink" x="0px" y="0px"
	 viewBox="0 0 88 88" style="enable-background:new 0 0 88 88;" xml:space="preserve">
<style type="text/css">
	.st0{fill:#81D2EB;}
	.st1{fill:#E1F5FA;}
	.st2{fill:#FFFFFF;}
	.st3{fill:#0F6175;}
	.st4{fill:#00B7E5;}
</style>
<circle class="st0" cx="44" cy="44" r="44"/>
<circle class="st1" cx="44" cy="44" r="25.6"/>
<path class="st2" d="M18.4,44c0,14.1,11.5,25.6,25.6,25.6V18.4C29.9,18.4,18.4,29.9,18.4,44z"/>
<path class="st3" d="M40.8,39.2c-0.7,0-1.2-0.5-1.2-1.2c0-2.9-2.3-5.2-5.2-5.2c-2.9,0-5.2,2.3-5.2,5.2c0,0.7-0.5,1.2-1.2,1.2
	s-1.2-0.5-1.2-1.2c0-4.2,3.4-7.6,7.6-7.6c4.2,0,7.6,3.4,7.6,7.6C42,38.7,41.5,39.2,40.8,39.2z"/>
<path class="st3" d="M62.4,39.2c-0.7,0-1.2-0.5-1.2-1.2c0-2.9-2.3-5.2-5.2-5.2s-5.2,2.3-5.2,5.2c0,0.7-0.5,1.2-1.2,1.2
	c-0.7,0-1.2-0.5-1.2-1.2c0-4.2,3.4-7.6,7.6-7.6s7.6,3.4,7.6,7.6C63.6,38.7,63.1,39.2,62.4,39.2z"/>
<path class="st3" d="M62.2,45.9c0.5-0.2,1.1,0,1.5,0.3c0.4,0.4,0.6,0.9,0.6,1.4c-0.8,6.3-4.7,11.7-10.1,14.5c-1.4-2.4-4.9-4.2-9-4.2
	s-7.6,1.7-9,4.2c-5.4-2.9-9.3-8.2-10.1-14.5c-0.1-0.5,0.1-1.1,0.6-1.4c0.4-0.3,1-0.5,1.5-0.3C39.5,49.2,50.9,49.2,62.2,45.9z"/>
<path class="st4" d="M54.2,62.2c-2.7,1.4-5.7,2.2-9,2.2c-3.2,0-6.3-0.8-9-2.2c1.4-2.4,4.9-4.2,9-4.2S52.8,59.7,54.2,62.2z"/>
</svg>
