<?xml version="1.0" encoding="utf-8"?>
<!-- Generator: Adobe Illustrator 22.1.0, SVG Export Plug-In . SVG Version: 6.00 Build 0)  -->
<svg version="1.1" id="Layer_1" xmlns="http://www.w3.org/2000/svg" xmlns:xlink="http://www.w3.org/1999/xlink" x="0px" y="0px"
	 viewBox="0 0 88 88" style="enable-background:new 0 0 88 88;" xml:space="preserve">
<style type="text/css">
	.st0{fill:#FABC3D;}
	.st1{fill:#9C6144;}
	.st2{fill:#84462D;}
	.st3{fill:#AF7653;}
	.st4{fill:#0D9681;}
	.st5{fill:#F3B607;}
	.st6{fill:#F0F1F1;}
	.st7{fill:#17B198;}
	.st8{fill:#FFFFFF;}
</style>
<circle class="st0" cx="44" cy="44" r="44"/>
<polygon class="st1" points="31.2,21.6 18.4,69.6 23.2,69.6 24,66.4 43.6,66.4 43.2,69.6 47.2,69.6 56.8,21.6 "/>
<polygon class="st2" points="49.4,66.4 62.4,66.4 63.2,69.6 67.2,69.6 57.6,24.8 "/>
<polygon class="st3" points="47.2,69.6 48.8,69.6 57.6,24.8 67.2,69.6 68.8,69.6 58.4,21.6 56.8,21.6 "/>
<polygon class="st4" points="33.6,24.8 23.2,63.2 44.8,63.2 52.8,24.8 "/>
<path class="st5" d="M64.8,44.8c0,0.9-0.7,1.6-1.6,1.6s-1.6-0.7-1.6-1.6s0.7-1.6,1.6-1.6S64.8,43.9,64.8,44.8z"/>
<path class="st6" d="M63.2,46.4c-0.4,0-0.7-0.1-0.9-0.3c-0.5,2.3-2.2,3.3-3.9,3.3c-1.6,0-3.4-1-3.9-3.3c-0.3,0.2-0.6,0.3-0.9,0.3
	c-0.2,0-0.5-0.1-0.7-0.1c0.2,1.3,0.8,2.3,1.6,3.2c1,1,2.4,1.6,3.9,1.6c2.4,0,4.9-1.6,5.5-4.8C63.7,46.3,63.4,46.4,63.2,46.4z"/>
<path class="st5" d="M55.2,44.8c0,0.9-0.7,1.6-1.6,1.6c-0.9,0-1.6-0.7-1.6-1.6s0.7-1.6,1.6-1.6C54.5,43.2,55.2,43.9,55.2,44.8z"/>
<polygon class="st3" points="57,21.6 31.2,21.6 21.8,56.8 "/>
<polygon class="st7" points="52.5,26.1 52.8,24.8 33.6,24.8 26.1,52.5 "/>
<path class="st8" d="M42.4,30.8c0,0.2-0.2,0.4-0.4,0.4h-7.2c-0.2,0-0.4-0.2-0.4-0.4c0-0.2,0.2-0.4,0.4-0.4H42
	C42.2,30.4,42.4,30.6,42.4,30.8z"/>
<path class="st8" d="M41.6,34c0,0.2-0.2,0.4-0.4,0.4H34c-0.2,0-0.4-0.2-0.4-0.4s0.2-0.4,0.4-0.4h7.2C41.4,33.6,41.6,33.8,41.6,34z"
	/>
<path class="st8" d="M38.4,37.2c0,0.2-0.2,0.4-0.4,0.4h-4.8c-0.2,0-0.4-0.2-0.4-0.4c0-0.2,0.2-0.4,0.4-0.4H38
	C38.2,36.8,38.4,37,38.4,37.2z"/>
<path class="st8" d="M45.6,44.4c0,0.2-0.2,0.4-0.4,0.4h-8.8c-0.2,0-0.4-0.2-0.4-0.4c0-0.2,0.2-0.4,0.4-0.4h8.8
	C45.4,44,45.6,44.2,45.6,44.4z"/>
<path class="st8" d="M44.8,47.6c0,0.2-0.2,0.4-0.4,0.4H33.2c-0.2,0-0.4-0.2-0.4-0.4c0-0.2,0.2-0.4,0.4-0.4h11.2
	C44.6,47.2,44.8,47.4,44.8,47.6z"/>
<path class="st8" d="M44,50.8c0,0.2-0.2,0.4-0.4,0.4H30c-0.2,0-0.4-0.2-0.4-0.4c0-0.2,0.2-0.4,0.4-0.4h13.6
	C43.8,50.4,44,50.6,44,50.8z"/>
<path class="st8" d="M46.4,33.7c-0.1,0.5-0.2,0.7-0.3,1.1c0.4-0.1,0.7-0.2,0.7-0.5C46.9,34,46.8,33.8,46.4,33.7z M45.9,32.2
	c0.1-0.4,0.2-0.7,0.3-1.1c-0.4,0.1-0.6,0.3-0.7,0.5C45.4,31.9,45.5,32.1,45.9,32.2z M46.9,29.6c0.2,0,0.4,0.2,0.3,0.4
	c0,0,0,0.1,0,0.1c0.4,0.1,0.8,0.2,1.1,0.4c0.1,0.1,0.2,0.2,0.2,0.5c-0.1,0.3-0.4,0.5-0.7,0.5c-0.1,0-0.2,0-0.3-0.1
	c-0.2-0.1-0.4-0.2-0.6-0.3c-0.1,0.5-0.2,0.7-0.3,1.2c1.2,0.3,1.7,0.8,1.5,1.8c-0.2,0.9-1.1,1.5-2.2,1.6c0,0.2-0.1,0.3-0.1,0.4
	c-0.1,0.2-0.3,0.4-0.6,0.4c-0.3,0-0.4-0.2-0.4-0.4c0-0.2,0.1-0.3,0.1-0.4c-0.6-0.1-1.2-0.3-1.6-0.6c-0.2-0.1-0.2-0.3-0.2-0.5
	c0.1-0.3,0.4-0.6,0.8-0.6c0.1,0,0.2,0,0.3,0.1c0.3,0.2,0.6,0.4,1,0.5c0.1-0.5,0.2-0.8,0.3-1.3c-1.2-0.3-1.7-0.8-1.4-1.7
	c0.2-0.9,1.1-1.5,2.2-1.6c0,0,0-0.1,0-0.1C46.5,29.8,46.7,29.6,46.9,29.6z"/>
</svg>
