<?xml version="1.0" encoding="utf-8"?>
<!-- Generator: Adobe Illustrator 22.1.0, SVG Export Plug-In . SVG Version: 6.00 Build 0)  -->
<svg version="1.1" id="Layer_1" xmlns="http://www.w3.org/2000/svg" xmlns:xlink="http://www.w3.org/1999/xlink" x="0px" y="0px"
	 viewBox="0 0 88 88" style="enable-background:new 0 0 88 88;" xml:space="preserve">
<style type="text/css">
	.st0{fill:#25B7D3;}
	.st1{fill:#F0F1F1;}
	.st2{fill:#FFFFFF;}
</style>
<circle class="st0" cx="44" cy="44" r="44"/>
<path class="st1" d="M66.5,54L52.5,44l14.1-10c0.7-0.5,0.9-1.5,0.4-2.2l-3.7-5.2c-0.5-0.7-1.5-0.9-2.2-0.4l-12,8.5V20
	c0-0.9-0.7-1.6-1.6-1.6h-6.6c-0.9,0-1.6,0.7-1.6,1.6v14.7l-11.8-8.5c-0.7-0.5-1.7-0.3-2.2,0.4l-3.7,5.2c-0.5,0.7-0.3,1.7,0.4,2.2
	l14.1,10L21.8,54c-0.7,0.5-0.9,1.5-0.4,2.2l3.7,5.2c0.5,0.7,1.5,0.9,2.2,0.4l11.8-8.5V68c0,0.9,0.7,1.6,1.6,1.6h6.6
	c0.9,0,1.6-0.7,1.6-1.6V53.3l12,8.5c0.7,0.5,1.7,0.3,2.2-0.4l3.7-5.2C67.4,55.5,67.2,54.5,66.5,54z"/>
<path class="st2" d="M44,18.4h-3.2c-0.9,0-1.6,0.7-1.6,1.6v14.7l-11.8-8.5c-0.7-0.5-1.7-0.3-2.2,0.4l-3.7,5.2
	c-0.5,0.7-0.3,1.7,0.4,2.2l14.1,10L21.8,54c-0.7,0.5-0.9,1.5-0.4,2.2l3.7,5.2c0.5,0.7,1.5,0.9,2.2,0.4l11.8-8.5V68
	c0,0.9,0.7,1.6,1.6,1.6H44V18.4z"/>
</svg>
