<?xml version="1.0" encoding="utf-8"?>
<!-- Generator: Adobe Illustrator 22.1.0, SVG Export Plug-In . SVG Version: 6.00 Build 0)  -->
<svg version="1.1" id="Layer_1" xmlns="http://www.w3.org/2000/svg" xmlns:xlink="http://www.w3.org/1999/xlink" x="0px" y="0px"
	 viewBox="0 0 88 88" style="enable-background:new 0 0 88 88;" xml:space="preserve">
<style type="text/css">
	.st0{fill:#25B7D3;}
	.st1{fill:#FFFFFF;}
	.st2{fill:#84462D;}
	.st3{fill:#F3B607;}
	.st4{fill:#FACB1B;}
</style>
<circle class="st0" cx="44" cy="44" r="44"/>
<path class="st1" d="M56.8,58.4c0,0.9-0.7,1.6-1.6,1.6h-32c-0.9,0-1.6-0.7-1.6-1.6v-1.6c0-0.9,0.7-1.6,1.6-1.6h32
	c0.9,0,1.6,0.7,1.6,1.6V58.4z"/>
<path class="st1" d="M68,42.1c0.7,0.5,0.8,1.6,0.3,2.2l-8.9,11.3c-0.5,0.7-1.6,0.8-2.2,0.3l-1.3-1c-0.7-0.5-0.8-1.6-0.3-2.2
	l8.9-11.3c0.5-0.7,1.6-0.8,2.2-0.3L68,42.1z"/>
<path class="st2" d="M67.9,48.3c-0.1-0.8-0.5-1.6-1.2-2.1L56,60H25.6c-0.6,0-1.1,0.3-1.4,0.8l-5.4,8.8h3.8l3.9-6.4h30.3
	c0,0,0,0,0.1,0l5.4,6.4h4.2l-7.2-8.5l8.1-10.4C67.8,50,68.1,49.2,67.9,48.3z"/>
<path class="st3" d="M41.6,33.6c0,4.9-3.9,8.8-8.8,8.8c-4.9,0-8.8-3.9-8.8-8.8c0-4.9,3.9-8.8,8.8-8.8C37.7,24.8,41.6,28.7,41.6,33.6
	z"/>
<polygon class="st4" points="31.2,22.4 34.4,22.4 32.8,19.2 "/>
<polygon class="st4" points="39.6,24.5 41.9,26.8 43,23.4 "/>
<polygon class="st4" points="44,32 44,35.2 47.2,33.6 "/>
<polygon class="st4" points="41.9,40.4 39.6,42.7 43,43.8 "/>
<polygon class="st4" points="34.4,44.8 31.2,44.8 32.8,48 "/>
<polygon class="st4" points="26,42.7 23.8,40.4 22.6,43.8 "/>
<polygon class="st4" points="21.6,35.2 21.6,32 18.4,33.6 "/>
<polygon class="st4" points="23.8,26.8 26,24.5 22.6,23.4 "/>
<path class="st4" d="M32.8,24.8c-4.9,0-8.8,3.9-8.8,8.8c0,2.4,1,4.6,2.6,6.2L39,27.4C37.4,25.8,35.2,24.8,32.8,24.8z"/>
</svg>
