<?xml version="1.0" encoding="utf-8"?>
<!-- Generator: Adobe Illustrator 22.1.0, SVG Export Plug-In . SVG Version: 6.00 Build 0)  -->
<svg version="1.1" id="Layer_1" xmlns="http://www.w3.org/2000/svg" xmlns:xlink="http://www.w3.org/1999/xlink" x="0px" y="0px"
	 viewBox="0 0 88 88" style="enable-background:new 0 0 88 88;" xml:space="preserve">
<style type="text/css">
	.st0{fill:#E04F5F;}
	.st1{fill:#FBE158;}
	.st2{fill:#F99134;}
	.st3{fill:#4AC3AF;}
	.st4{fill:#17B198;}
	.st5{fill:#21B2D1;}
	.st6{fill:#059BBF;}
	.st7{fill:#FACB1B;}
</style>
<circle class="st0" cx="44" cy="44" r="44"/>
<ellipse class="st1" cx="44" cy="40.8" rx="25.6" ry="16"/>
<path class="st2" d="M55.6,26.5c-7.3-2.3-16.3-2.3-23.7,0.2c-8,2.7-13.4,8-13.4,14.1H44L55.6,26.5z"/>
<path class="st3" d="M69.6,40.8c0,4-2.4,7.5-5.6,10v0l-7.1-3.6L44,40.8l11.6-14.3c0,0,0.1,0,0.1,0C63.9,29.2,69.6,34.6,69.6,40.8z"
	/>
<path class="st4" d="M69.6,40.8v12.8c0,3.8-2.1,7.2-5.6,10V50.8C67.2,48.3,69.6,44.8,69.6,40.8z"/>
<path class="st5" d="M64,50.8L64,50.8c-4.1,3.2-10,5.4-16.8,5.9v0L44,40.8L64,50.8z"/>
<path class="st6" d="M64,50.8v12.8c-4.1,3.2-10,5.4-16.8,5.9V56.7C54,56.2,59.9,54,64,50.8z"/>
<path class="st7" d="M47.2,56.7v12.8c-1,0.1-2.1,0.1-3.2,0.1c-14.1,0-25.6-7.2-25.6-16V40.8C18.4,50.3,31.7,57.9,47.2,56.7z"/>
<path class="st1" d="M47.2,56.7c-15.6,1.2-28.8-6.4-28.8-15.9H44L47.2,56.7z"/>
</svg>
