<?xml version="1.0" encoding="utf-8"?>
<!-- Generator: Adobe Illustrator 22.1.0, SVG Export Plug-In . SVG Version: 6.00 Build 0)  -->
<svg version="1.1" id="Layer_1" xmlns="http://www.w3.org/2000/svg" xmlns:xlink="http://www.w3.org/1999/xlink" x="0px" y="0px"
	 viewBox="0 0 224 43" style="enable-background:new 0 0 224 43;" xml:space="preserve">
<style type="text/css">
	.st0{fill:#29B48D;}
	.st1{fill:#929292;}
</style>
<g>
	<g>
		<path class="st0" d="M43.8,0.3v5.9H32.3v6.7h8.9v5.6h-8.9V31h-6.8V0.3H43.8z"/>
		<path class="st0" d="M63.4,8c1.7,1,3.1,2.4,4.1,4.3c1,1.9,1.5,4.1,1.5,6.6c0,2.5-0.5,4.7-1.5,6.6c-1,1.9-2.3,3.3-4.1,4.3
			c-1.7,1-3.7,1.5-5.9,1.5c-2.2,0-4.2-0.5-5.9-1.5c-1.7-1-3.1-2.4-4.1-4.3c-1-1.9-1.5-4.1-1.5-6.6c0-2.5,0.5-4.7,1.5-6.6
			c1-1.9,2.4-3.3,4.1-4.3c1.7-1,3.7-1.5,5.9-1.5C59.8,6.5,61.7,7,63.4,8z M54.3,14.4c-0.9,1-1.3,2.5-1.3,4.5c0,1.9,0.4,3.4,1.3,4.4
			c0.9,1,2,1.5,3.3,1.5c1.3,0,2.4-0.5,3.2-1.5c0.9-1,1.3-2.5,1.3-4.4c0-1.9-0.4-3.4-1.3-4.5c-0.9-1-2-1.5-3.2-1.5
			C56.3,12.9,55.2,13.4,54.3,14.4z"/>
		<path class="st0" d="M94.5,6.8V31h-6.8v-4.4C87,28,86.1,29.2,84.8,30c-1.3,0.8-2.7,1.3-4.4,1.3c-2.5,0-4.5-0.9-6-2.8
			c-1.5-1.9-2.2-4.4-2.2-7.6V6.8h6.7v13.2c0,1.7,0.4,2.9,1.2,3.8c0.8,0.9,1.8,1.4,3.1,1.4c1.4,0,2.5-0.5,3.2-1.4
			c0.8-1,1.2-2.3,1.2-4.1V6.8H94.5z"/>
		<path class="st0" d="M109.1,7.8c1.3-0.9,2.8-1.3,4.3-1.3v8h-1.9c-1.8,0-3.2,0.4-4.2,1.3c-1,0.8-1.5,2.3-1.5,4.3v11h-6.8V6.8h6.8
			v4.6C106.7,9.9,107.8,8.7,109.1,7.8z"/>
		<path class="st1" d="M131,8.8c1.7,1.5,2.7,3.6,3.1,6.1h-6.3c-0.2-1-0.6-1.8-1.2-2.3c-0.6-0.6-1.5-0.8-2.4-0.8
			c-0.8,0-1.3,0.2-1.7,0.5c-0.4,0.4-0.6,0.9-0.6,1.5c0,0.8,0.4,1.3,1.1,1.7c0.7,0.4,1.9,0.8,3.4,1.1c1.7,0.4,3.1,0.9,4.2,1.3
			c1.1,0.4,2,1.2,2.8,2.2c0.8,1,1.2,2.4,1.2,4.1c0,1.4-0.3,2.6-1,3.7c-0.7,1.1-1.7,1.9-3,2.5c-1.3,0.6-2.8,0.9-4.6,0.9
			c-3,0-5.4-0.7-7.2-2.2c-1.8-1.4-2.9-3.5-3.3-6.2h6.5c0.1,1,0.5,1.8,1.2,2.4c0.7,0.6,1.6,0.8,2.7,0.8c0.8,0,1.3-0.2,1.7-0.6
			s0.6-0.9,0.6-1.5c0-0.8-0.4-1.4-1.1-1.8c-0.7-0.4-1.9-0.7-3.5-1.2c-1.6-0.4-3-0.8-4-1.2c-1.1-0.4-2-1.1-2.7-2.1
			c-0.8-1-1.1-2.3-1.1-4c0-2.2,0.8-3.9,2.3-5.3c1.5-1.3,3.6-2,6.4-2C127.1,6.5,129.4,7.2,131,8.8z"/>
		<path class="st1" d="M150.7,24.6V31h-3c-2.6,0-4.6-0.7-6-2.1c-1.4-1.4-2.2-3.7-2.2-7V13h-3V6.8h3v-6h6.8v6h4.4V13h-4.4v9
			c0,1,0.2,1.6,0.5,2c0.4,0.4,1,0.6,1.8,0.6H150.7z"/>
		<path class="st1" d="M175.3,20.2H160c0.1,1.8,0.5,3.1,1.3,3.9c0.8,0.8,1.7,1.2,2.9,1.2c1,0,1.8-0.3,2.5-0.8
			c0.7-0.5,1.1-1.3,1.3-2.1h7.2c-0.3,1.7-0.9,3.2-1.9,4.6c-1,1.3-2.2,2.4-3.7,3.2c-1.5,0.8-3.2,1.2-5,1.2c-2.2,0-4.1-0.5-5.8-1.5
			c-1.7-1-3-2.4-3.9-4.3c-0.9-1.9-1.4-4.1-1.4-6.6c0-2.5,0.5-4.8,1.4-6.6c0.9-1.9,2.2-3.3,3.9-4.3c1.7-1,3.6-1.5,5.8-1.5
			c2.2,0,4.1,0.5,5.8,1.5c1.7,1,2.9,2.4,3.9,4.1c0.9,1.8,1.4,3.8,1.4,6.1C175.5,18.9,175.4,19.5,175.3,20.2z M167.5,13.5
			c-0.8-0.8-1.8-1.2-3-1.2c-1.2,0-2.3,0.4-3.1,1.2c-0.8,0.8-1.3,2-1.4,3.6h8.6C168.7,15.5,168.3,14.3,167.5,13.5z"/>
		<path class="st1" d="M197.7,8c1.4,1,2.6,2.4,3.4,4.3c0.8,1.9,1.2,4.1,1.2,6.6c0,2.5-0.4,4.7-1.2,6.6c-0.8,1.9-2,3.3-3.4,4.3
			c-1.4,1-3.1,1.5-4.9,1.5c-1.7,0-3.1-0.4-4.3-1.3c-1.2-0.8-2.1-2-2.6-3.4v15.9H179V6.8h6.8v4.4c0.6-1.4,1.4-2.6,2.6-3.4
			c1.2-0.8,2.7-1.3,4.3-1.3C194.6,6.5,196.2,7,197.7,8z M187.1,14.6c-0.9,1.1-1.4,2.5-1.4,4.3c0,1.8,0.5,3.2,1.4,4.3
			c0.9,1.1,2.1,1.6,3.5,1.6c1.4,0,2.6-0.5,3.5-1.6c0.9-1,1.3-2.5,1.3-4.3c0-1.9-0.4-3.3-1.3-4.3c-0.9-1-2-1.6-3.5-1.6
			C189.2,13,188,13.5,187.1,14.6z"/>
		<path class="st1" d="M220.5,8.8c1.7,1.5,2.7,3.6,3.1,6.1h-6.3c-0.2-1-0.6-1.8-1.2-2.3c-0.6-0.6-1.5-0.8-2.4-0.8
			c-0.8,0-1.3,0.2-1.7,0.5c-0.4,0.4-0.6,0.9-0.6,1.5c0,0.8,0.4,1.3,1.1,1.7c0.7,0.4,1.9,0.8,3.4,1.1c1.7,0.4,3.1,0.9,4.2,1.3
			c1.1,0.4,2,1.2,2.8,2.2c0.8,1,1.2,2.4,1.2,4.1c0,1.4-0.3,2.6-1,3.7c-0.7,1.1-1.7,1.9-3,2.5c-1.3,0.6-2.8,0.9-4.6,0.9
			c-3,0-5.4-0.7-7.2-2.2c-1.8-1.4-2.9-3.5-3.3-6.2h6.5c0.1,1,0.5,1.8,1.2,2.4c0.7,0.6,1.6,0.8,2.7,0.8c0.8,0,1.3-0.2,1.7-0.6
			s0.6-0.9,0.6-1.5c0-0.8-0.4-1.4-1.1-1.8c-0.7-0.4-1.9-0.7-3.5-1.2c-1.6-0.4-3-0.8-4-1.2c-1.1-0.4-2-1.1-2.7-2.1
			c-0.8-1-1.1-2.3-1.1-4c0-2.2,0.8-3.9,2.3-5.3c1.5-1.3,3.6-2,6.4-2C216.6,6.5,218.9,7.2,220.5,8.8z"/>
	</g>
	<g>
		<rect x="16.9" y="8.9" class="st0" width="6" height="22.1"/>
		<rect x="8.5" y="15.1" class="st0" width="6" height="15.9"/>
		<rect x="0" y="20" class="st0" width="6" height="11.1"/>
	</g>
</g>
</svg>
