<?xml version="1.0" encoding="utf-8"?>
<!-- Generator: Adobe Illustrator 22.1.0, SVG Export Plug-In . SVG Version: 6.00 Build 0)  -->
<svg version="1.1" id="Layer_1" xmlns="http://www.w3.org/2000/svg" xmlns:xlink="http://www.w3.org/1999/xlink" x="0px" y="0px"
	 viewBox="0 0 249.7 46.5" style="enable-background:new 0 0 249.7 46.5;" xml:space="preserve">
<style type="text/css">
	.st0{fill:#3EB489;}
	.st1{fill:#929292;}
</style>
<g>
	<g>
		<path class="st0" d="M70.4,9.7c1.9,1,3.4,2.5,4.5,4.4c1.1,1.9,1.6,4.1,1.6,6.7c0,2.6-0.5,4.8-1.6,6.7c-1.1,1.9-2.6,3.3-4.5,4.4
			c-1.9,1-4.1,1.5-6.5,1.5s-4.5-0.5-6.4-1.5c-1.9-1-3.4-2.5-4.5-4.4c-1.1-1.9-1.6-4.1-1.6-6.7c0-2.6,0.5-4.8,1.6-6.7
			s2.6-3.4,4.5-4.4c1.9-1,4.1-1.5,6.4-1.5S68.5,8.7,70.4,9.7z M59.6,15.4c-1.2,1.2-1.8,3-1.8,5.3c0,2.3,0.6,4.1,1.8,5.3
			c1.2,1.2,2.7,1.8,4.4,1.8c1.7,0,3.2-0.6,4.4-1.8c1.2-1.2,1.8-3,1.8-5.3c0-2.3-0.6-4.1-1.8-5.3c-1.2-1.2-2.7-1.8-4.4-1.8
			C62.3,13.6,60.8,14.2,59.6,15.4z"/>
		<path class="st0" d="M104.5,8.5V33h-6.3v-5C97.6,29.7,96.5,31,95,32s-3.2,1.4-5.2,1.4c-2.8,0-5.1-0.9-6.8-2.8s-2.5-4.5-2.5-7.8
			V8.5h6.2v13.6c0,1.9,0.5,3.5,1.5,4.5s2.4,1.6,4.1,1.6c1.8,0,3.2-0.6,4.3-1.7c1.1-1.2,1.6-2.8,1.6-5v-13H104.5z"/>
		<path class="st0" d="M120.1,9.5c1.5-0.9,3.2-1.4,5.1-1.4v6.7h-1.8c-4.6,0-6.9,2.1-6.9,6.4V33h-6.3V8.5h6.3v4.7
			C117.4,11.6,118.6,10.4,120.1,9.5z"/>
		<path class="st1" d="M144.2,10.4c1.8,1.5,2.9,3.5,3.4,6h-5.9c-0.2-1.2-0.8-2.1-1.6-2.8c-0.8-0.7-1.9-1.1-3.2-1.1
			c-1.1,0-1.9,0.3-2.5,0.8c-0.6,0.5-0.9,1.2-0.9,2c0,0.7,0.2,1.2,0.7,1.6c0.5,0.4,1.1,0.7,1.8,1c0.7,0.2,1.7,0.5,3.1,0.8
			c1.9,0.4,3.4,0.8,4.5,1.3s2.2,1.2,3,2.2c0.8,1,1.3,2.3,1.3,4c0,2.1-0.8,3.8-2.5,5.1c-1.6,1.3-3.8,1.9-6.6,1.9
			c-3.2,0-5.7-0.7-7.7-2.2c-1.9-1.4-3.1-3.5-3.5-6.1h6c0.1,1.2,0.7,2.2,1.6,2.9c0.9,0.7,2.1,1,3.6,1c1.1,0,1.9-0.3,2.4-0.8
			c0.6-0.5,0.8-1.2,0.8-2c0-0.7-0.2-1.3-0.7-1.7c-0.5-0.4-1.1-0.8-1.8-1c-0.7-0.2-1.7-0.5-3.1-0.8c-1.8-0.4-3.3-0.8-4.5-1.3
			c-1.1-0.4-2.1-1.1-2.9-2.1c-0.8-0.9-1.2-2.2-1.2-3.9c0-2.1,0.8-3.9,2.4-5.2c1.6-1.3,3.9-2,6.7-2C140,8.2,142.4,8.9,144.2,10.4z"/>
		<path class="st1" d="M165.7,27.7V33h-3.3c-2.7,0-4.9-0.7-6.3-2c-1.5-1.3-2.2-3.5-2.2-6.6V13.8h-3.4V8.5h3.4V2.4h6.3v6.1h5.5v5.3
			h-5.5v10.7c0,1.2,0.2,2,0.7,2.5c0.5,0.5,1.3,0.7,2.4,0.7H165.7z"/>
		<path class="st1" d="M193,22h-18c0.1,2.2,0.7,3.8,1.8,4.8c1.1,1,2.5,1.6,4.1,1.6c1.4,0,2.7-0.4,3.6-1.1c1-0.7,1.6-1.7,1.8-2.9h6.6
			c-0.3,1.7-1,3.3-2.1,4.6c-1.1,1.4-2.4,2.4-4.1,3.2c-1.7,0.8-3.5,1.2-5.6,1.2c-2.4,0-4.5-0.5-6.4-1.5c-1.9-1-3.3-2.5-4.3-4.4
			c-1-1.9-1.6-4.1-1.6-6.7c0-2.6,0.5-4.8,1.6-6.7c1-1.9,2.5-3.4,4.3-4.4c1.9-1,4-1.5,6.4-1.5c2.4,0,4.5,0.5,6.4,1.5
			c1.8,1,3.2,2.4,4.2,4.1c1,1.8,1.5,3.8,1.5,6C193.3,20.5,193.2,21.2,193,22z M185.4,14.7c-1.1-1-2.5-1.6-4.2-1.6
			c-1.7,0-3.1,0.5-4.3,1.6c-1.2,1-1.8,2.6-1.9,4.6H187C187.1,17.2,186.5,15.7,185.4,14.7z"/>
		<path class="st1" d="M217.9,9.7c1.7,1,2.9,2.5,3.9,4.4c0.9,1.9,1.4,4.1,1.4,6.7c0,2.6-0.5,4.8-1.4,6.7c-0.9,1.9-2.2,3.4-3.9,4.4
			c-1.7,1-3.5,1.5-5.6,1.5c-2.1,0-3.8-0.5-5.3-1.5c-1.5-1-2.5-2.3-3.1-4v16.8h-6.3V8.5h6.3v5.1c0.6-1.7,1.7-3,3.1-3.9
			c1.5-1,3.2-1.5,5.3-1.5C214.4,8.2,216.3,8.7,217.9,9.7z M205.7,15.6c-1.2,1.3-1.8,3-1.8,5.2c0,2.2,0.6,3.9,1.8,5.2
			c1.2,1.3,2.8,1.9,4.7,1.9c2,0,3.5-0.6,4.7-1.9c1.2-1.3,1.8-3,1.8-5.2c0-2.2-0.6-4-1.8-5.2c-1.2-1.3-2.7-1.9-4.7-1.9
			C208.5,13.6,207,14.3,205.7,15.6z"/>
		<path class="st1" d="M243.3,10.4c1.8,1.5,2.9,3.5,3.4,6h-5.9c-0.2-1.2-0.8-2.1-1.6-2.8c-0.8-0.7-1.9-1.1-3.2-1.1
			c-1.1,0-1.9,0.3-2.5,0.8c-0.6,0.5-0.9,1.2-0.9,2c0,0.7,0.2,1.2,0.7,1.6c0.5,0.4,1.1,0.7,1.8,1c0.7,0.2,1.7,0.5,3.1,0.8
			c1.9,0.4,3.4,0.8,4.5,1.3s2.2,1.2,3,2.2c0.8,1,1.3,2.3,1.3,4c0,2.1-0.8,3.8-2.5,5.1c-1.6,1.3-3.8,1.9-6.6,1.9
			c-3.2,0-5.8-0.7-7.7-2.2c-1.9-1.4-3.1-3.5-3.5-6.1h6c0.1,1.2,0.7,2.2,1.6,2.9c0.9,0.7,2.1,1,3.6,1c1.1,0,1.9-0.3,2.4-0.8
			c0.6-0.5,0.8-1.2,0.8-2c0-0.7-0.2-1.3-0.7-1.7c-0.5-0.4-1.1-0.8-1.8-1c-0.7-0.2-1.8-0.5-3.1-0.8c-1.8-0.4-3.3-0.8-4.5-1.3
			c-1.1-0.4-2.1-1.1-2.9-2.1c-0.8-0.9-1.2-2.2-1.2-3.9c0-2.1,0.8-3.9,2.4-5.2c1.6-1.3,3.9-2,6.7-2C239.1,8.2,241.5,8.9,243.3,10.4z"
			/>
	</g>
	<g>
		<rect x="20.3" y="10" class="st0" width="6.2" height="23"/>
		<rect x="11.5" y="16.5" class="st0" width="6.2" height="16.5"/>
		<rect x="2.7" y="21.5" class="st0" width="6.2" height="11.6"/>
	</g>
	<path class="st0" d="M48.4,1.8v5H35.3v8.4h10.6v4.8H35.3V33H29V1.8H48.4z"/>
</g>
</svg>
