<?xml version="1.0" encoding="utf-8"?>
<!-- Generator: Adobe Illustrator 22.1.0, SVG Export Plug-In . SVG Version: 6.00 Build 0)  -->
<svg version="1.1" id="Layer_1" xmlns="http://www.w3.org/2000/svg" xmlns:xlink="http://www.w3.org/1999/xlink" x="0px" y="0px"
	 viewBox="0 0 88 88" style="enable-background:new 0 0 88 88;" xml:space="preserve">
<style type="text/css">
	.st0{fill:#25B7D3;}
	.st1{fill:#8CE3D4;}
	.st2{fill:#0D9681;}
	.st3{fill:#C2F8F0;}
	.st4{fill:#17B198;}
	.st5{fill:#3E3E3F;}
	.st6{fill:#FFFFFF;}
	.st7{fill:#CFD3D4;}
</style>
<circle class="st0" cx="44" cy="44" r="44"/>
<path class="st1" d="M42.4,45.2c0-1.8,1.4-3.2,3.2-3.2c1.8,0,3.2,1.4,3.2,3.2C48.8,49.5,42.4,49.5,42.4,45.2z M56.8,33.2l-34.9,16
	l9.3,20.4l34.9-16L56.8,33.2z"/>
<path class="st2" d="M59.6,54.8L36.3,65.5c-1.1-2.4-4-3.5-6.4-2.4l-4-8.7c2.4-1.1,3.5-4,2.4-6.4L39,43.1c0.9,1.8,2,3.1,3.8,3.7
	c1.5,2.6,5.4,1.9,5.9-1c0.2-1.1-0.2-2.3-1.2-3.1C47,42.3,46.3,42,45.6,42c-1,0-1.9,0.5-2.5,1.2c-0.3-0.3-0.6-0.8-1-1.5l9.5-4.4
	c1.1,2.4,3.9,3.5,6.4,2.4l4,8.7C59.6,49.6,58.5,52.4,59.6,54.8z"/>
<path class="st3" d="M42.4,45.2c0-1.8,1.4-3.2,3.2-3.2c1.8,0,3.2,1.4,3.2,3.2c0,0.4-0.1,0.8-0.2,1.1l9.8-9.7l-1.5-3.4l-34.9,16
	l7.5,16.4l17.3-17.3C44.5,49,42.4,47.4,42.4,45.2z"/>
<path class="st4" d="M44.3,48.2c-0.6-0.2-1.2-0.7-1.5-1.4c-1.8-0.6-2.9-1.9-3.8-3.7L28.3,48c1.1,2.4,0,5.3-2.4,6.4l4,8.7
	c0.7-0.3,1.5-0.5,2.3-0.4l14.4-14.4C45.9,48.5,45,48.5,44.3,48.2z"/>
<path class="st4" d="M51.6,37.4l-9.5,4.4c0.4,0.7,0.7,1.2,1,1.5c0.5-0.7,1.5-1.2,2.5-1.2c0.7,0,1.4,0.3,1.9,0.7
	c1.1,0.8,1.6,2.3,1.1,3.6l6.3-6.3C53.5,39.7,52.3,38.8,51.6,37.4z"/>
<polygon class="st5" points="50.1,36.3 47.2,29.7 47.2,18.4 44,18.4 44,30.4 47.2,37.6 "/>
<path class="st3" d="M57.2,46.1c0,0.9-0.7,1.6-1.6,1.6c-0.9,0-1.6-0.7-1.6-1.6s0.7-1.6,1.6-1.6C56.5,44.5,57.2,45.2,57.2,46.1z"/>
<path class="st6" d="M33.9,56.7c0,0.9-0.7,1.6-1.6,1.6s-1.6-0.7-1.6-1.6c0-0.9,0.7-1.6,1.6-1.6S33.9,55.9,33.9,56.7z"/>
<path class="st7" d="M43.1,43.3c-0.3-0.3-0.6-0.8-1-1.5L39,43.1c0.9,1.8,2,3.1,3.8,3.7c-0.3-0.5-0.4-1-0.4-1.6
	C42.4,44.5,42.6,43.8,43.1,43.3z"/>
<path class="st3" d="M46.7,57.2c-3.2,1.5-7,0.1-8.5-3.2c-1.7-3.7,0.4-7.9,4.2-8.9v0c0,3.6,4.5,4.2,5.9,1.5
	C51.8,49.9,50.8,55.4,46.7,57.2z"/>
<path class="st6" d="M44.4,48.2c-1.3-0.5-2-1.8-2-3c0,0,0,0,0,0c-3.8,1-5.8,5.2-4.1,8.8c0.3,0.6,0.6,1.1,1,1.6l7.4-7.4
	C45.9,48.5,45.2,48.5,44.4,48.2z"/>
<path class="st5" d="M48.7,45.8c-1.1,0.8-2.4,1.3-3.9,1.3c-2.8,0-4.6-1.4-5.8-3.8c-0.5-1-1-2.5-1.4-3.3h-2.4l2.4-8.2
	c2.5,5.4,3.7,8.3,4.5,10c0.4,0.7,0.7,1.2,1,1.5c0.8,0.8,2.5,1.1,4.4-0.6C48.5,43.5,48.9,44.7,48.7,45.8z"/>
<path class="st4" d="M45.3,53l-0.6-1.2c0.5-0.1,0.8,0.1,0.9,0.4C45.8,52.5,45.7,52.8,45.3,53z M42.3,50.3c-0.1-0.3,0-0.6,0.4-0.8
	l0.5,1.2C42.7,50.7,42.4,50.6,42.3,50.3z M46.9,51.5c-0.4-1-1.3-1.3-2.8-1l-0.6-1.3c0.3,0,0.6,0,0.9,0c0.1,0,0.1,0,0.2-0.1
	c0.3-0.1,0.2-0.4,0.2-0.7v0c0-0.1-0.8-0.3-1.1-0.5c-0.3,0-0.5,0.1-0.7,0.2l0-0.1c-0.1-0.3-0.4-0.4-0.6-0.2c-0.3,0.1-0.4,0.4-0.2,0.7
	l0.1,0.1c-1,0.6-1.5,1.6-1,2.6c0.5,1,1.3,1.2,2.7,1l0.6,1.4c-0.4,0.1-0.9,0.1-1.3,0c-0.1,0-0.3,0-0.4,0.1c-0.3,0.2-0.5,0.5-0.3,0.9
	c0.1,0.2,0.3,0.4,0.5,0.4c0.7,0.1,1.3,0,2-0.2l0.2,0.5c0.1,0.2,0.4,0.4,0.7,0.2c0.2-0.1,0.4-0.4,0.2-0.7l-0.2-0.5
	C46.9,53.5,47.3,52.5,46.9,51.5z"/>
</svg>
