<?xml version="1.0" encoding="utf-8"?>
<!-- Generator: Adobe Illustrator 22.1.0, SVG Export Plug-In . SVG Version: 6.00 Build 0)  -->
<svg version="1.1" id="Layer_1" xmlns="http://www.w3.org/2000/svg" xmlns:xlink="http://www.w3.org/1999/xlink" x="0px" y="0px"
	 viewBox="0 0 88 88" style="enable-background:new 0 0 88 88;" xml:space="preserve">
<style type="text/css">
	.st0{fill:#7C7C7C;}
	.st1{fill:#E7E7E7;}
	.st2{fill:#C6C6C6;}
	.st3{fill:#DADADA;}
	.st4{fill:#F2F2F2;}
	.st5{fill:#6A6A6A;}
</style>
<circle class="st0" cx="44" cy="44" r="44"/>
<path class="st1" d="M59.2,25.6c-5.7,0-10.4,4.7-10.4,10.4s4.7,10.4,10.4,10.4c5.7,0,10.4-4.7,10.4-10.4S64.9,25.6,59.2,25.6z
	 M59.2,26.9c5,0,9.1,4.1,9.1,9.1s-4.1,9.1-9.1,9.1c-5,0-9.1-4.1-9.1-9.1S54.2,26.9,59.2,26.9"/>
<path class="st2" d="M59.2,45.1c-5,0-9.1-4.1-9.1-9.1s4.1-9.1,9.1-9.1c5,0,9.1,4.1,9.1,9.1S64.2,45.1,59.2,45.1z"/>
<path class="st3" d="M59.2,26.9c-5,0-9.1,4.1-9.1,9.1c0,2.6,1.1,4.9,2.8,6.6l12.9-12.9C64.1,28,61.8,26.9,59.2,26.9z"/>
<path class="st4" d="M50.1,36c0-5,4.1-9.1,9.1-9.1c2.6,0,4.9,1.1,6.6,2.8l0.9-0.9c-1.9-2-4.5-3.2-7.5-3.2c-5.7,0-10.4,4.7-10.4,10.4
	c0,2.9,1.2,5.6,3.2,7.5l0.9-0.9C51.2,40.9,50.1,38.6,50.1,36z"/>
<path class="st5" d="M60,37v2.8c1-0.1,1.5-0.6,1.5-1.4C61.6,37.8,61.2,37.4,60,37z M58.8,34.8v-2.8c-1,0.1-1.5,0.6-1.5,1.3
	C57.3,34,57.6,34.4,58.8,34.8z M59.4,29.5c0.4,0,0.7,0.3,0.7,0.7v0.3c0.9,0.1,1.7,0.4,2.4,0.9c0.2,0.1,0.5,0.4,0.5,0.8
	c0,0.5-0.4,0.9-0.9,0.9c-0.2,0-0.3-0.1-0.5-0.1c-0.5-0.3-1.1-0.6-1.6-0.7v3c2.4,0.6,3.4,1.5,3.4,3.2c0,1.7-1.3,2.9-3.3,3v0.3
	c0,0.4-0.3,0.7-0.7,0.7c-0.4,0-0.7-0.3-0.7-0.7v-0.4c-1.2-0.1-2.2-0.5-3.2-1.2c-0.3-0.2-0.4-0.4-0.4-0.8c0-0.5,0.4-0.9,0.9-0.9
	c0.2,0,0.4,0.1,0.5,0.2c0.7,0.5,1.5,0.9,2.3,1v-3.1c-2.3-0.6-3.3-1.4-3.3-3.2c0-1.7,1.3-2.8,3.3-3v-0.3
	C58.7,29.8,59.1,29.5,59.4,29.5z"/>
<circle class="st3" cx="37.6" cy="26.4" r="8"/>
<path class="st1" d="M35.2,36c-9.3,0-16.8,7.5-16.8,16.8c0,9.3,7.5,16.8,16.8,16.8c9.3,0,16.8-7.5,16.8-16.8
	C52,43.5,44.5,36,35.2,36z M35.2,38.1c8.1,0,14.7,6.6,14.7,14.7c0,8.1-6.6,14.7-14.7,14.7c-8.1,0-14.7-6.6-14.7-14.7
	C20.5,44.7,27.1,38.1,35.2,38.1"/>
<circle class="st2" cx="35.2" cy="52.8" r="14.7"/>
<path class="st3" d="M35.2,38.1c-8.1,0-14.7,6.6-14.7,14.7c0,4.2,1.8,7.9,4.6,10.6l20.8-20.8C43.1,39.8,39.4,38.1,35.2,38.1z"/>
<path class="st4" d="M20.5,52.8c0-8.1,6.6-14.7,14.7-14.7c4.2,0,7.9,1.7,10.6,4.5l1.5-1.5C44.2,38,39.9,36,35.2,36
	c-9.3,0-16.8,7.5-16.8,16.8c0,4.7,2,9,5.1,12.1l1.5-1.5C22.2,60.7,20.5,57,20.5,52.8z"/>
<path class="st5" d="M36.6,54.4V59c1.6-0.2,2.5-1,2.5-2.2C39.1,55.7,38.5,55,36.6,54.4z M34.6,50.9v-4.5c-1.6,0.1-2.4,1-2.4,2.1
	C32.1,49.6,32.6,50.3,34.6,50.9z M35.6,42.3c0.6,0,1.1,0.5,1.1,1.1V44c1.5,0.2,2.7,0.7,3.9,1.4c0.4,0.2,0.8,0.6,0.8,1.2
	c0,0.8-0.6,1.4-1.4,1.4c-0.2,0-0.5-0.1-0.8-0.2c-0.9-0.5-1.7-0.9-2.6-1.1v4.8c3.8,1,5.5,2.5,5.5,5.2c0,2.8-2.2,4.6-5.4,4.9v0.5
	c0,0.6-0.5,1.1-1.1,1.1c-0.6,0-1.1-0.5-1.1-1.1v-0.6c-1.9-0.2-3.6-0.9-5.2-2c-0.4-0.3-0.7-0.7-0.7-1.2c0-0.8,0.6-1.4,1.4-1.4
	c0.3,0,0.6,0.1,0.8,0.3c1.2,0.9,2.3,1.4,3.7,1.7v-5c-3.7-1-5.4-2.3-5.4-5.2c0-2.7,2.1-4.6,5.3-4.8v-0.5C34.5,42.8,35,42.3,35.6,42.3
	z"/>
<path class="st1" d="M37.6,18.4c-4.4,0-8,3.6-8,8c0,2.2,0.9,4.2,2.3,5.6l11.3-11.3C41.8,19.3,39.8,18.4,37.6,18.4z"/>
<path class="st5" d="M38.2,27.1v1.5c0.5-0.1,0.8-0.3,0.8-0.7C39,27.5,38.8,27.3,38.2,27.1z M37.2,25.1v-1.5
	c-0.5,0.1-0.8,0.3-0.8,0.7C36.4,24.7,36.5,24.9,37.2,25.1z M37.7,21.5c0.3,0,0.6,0.3,0.6,0.6v0.2c0.6,0.1,1.1,0.3,1.6,0.5
	c0.2,0.1,0.4,0.3,0.4,0.7c0,0.4-0.3,0.7-0.8,0.7c-0.1,0-0.3,0-0.4-0.1c-0.3-0.2-0.6-0.3-0.9-0.4v1.7c1.7,0.5,2.4,1.1,2.4,2.4
	c0,1.2-1,2-2.3,2.2v0.6c0,0.3-0.3,0.6-0.6,0.6c-0.3,0-0.6-0.3-0.6-0.6V30c-0.8-0.1-1.5-0.4-2.2-0.8c-0.2-0.1-0.4-0.4-0.4-0.7
	c0-0.4,0.3-0.8,0.8-0.8c0.1,0,0.3,0.1,0.4,0.1c0.5,0.3,0.9,0.5,1.4,0.6v-1.8c-1.6-0.4-2.4-1-2.4-2.4c0-1.2,0.9-2,2.3-2.2v-0.1
	C37.1,21.8,37.4,21.5,37.7,21.5z"/>
</svg>
