<?xml version="1.0" encoding="utf-8"?>
<!-- Generator: Adobe Illustrator 22.1.0, SVG Export Plug-In . SVG Version: 6.00 Build 0)  -->
<svg version="1.1" id="Layer_1" xmlns="http://www.w3.org/2000/svg" xmlns:xlink="http://www.w3.org/1999/xlink" x="0px" y="0px"
	 viewBox="0 0 88 88" style="enable-background:new 0 0 88 88;" xml:space="preserve">
<style type="text/css">
	.st0{fill:#25B7D3;}
	.st1{fill:#84462D;}
	.st2{fill:#9C6144;}
	.st3{fill:#FACB1B;}
	.st4{fill:#F3B607;}
	.st5{fill:#FFFFFF;}
	.st6{fill:#40C9E7;}
	.st7{fill:#6FDAF1;}
</style>
<circle class="st0" cx="44" cy="44" r="44"/>
<path class="st1" d="M34.3,48L19.6,62.8c-1.5,1.5-1.5,4.1,0,5.6l0.1,0.1c1.5,1.5,4.1,1.5,5.6,0L40,53.7C37.7,52.2,35.8,50.3,34.3,48
	z"/>
<path class="st2" d="M19.6,62.8c-1.5,1.5-1.5,4-0.1,5.5l13.6-13.6L30.3,52L19.6,62.8z"/>
<path class="st3" d="M34.3,48l-4,4l2.7,2.7l3.7-3.7C35.8,50.2,35,49.1,34.3,48z"/>
<path class="st4" d="M34.3,48l-4,4l5.7,5.7l4-4C37.7,52.2,35.8,50.3,34.3,48z"/>
<path class="st5" d="M69.6,37.6c0,10.6-8.6,19.2-19.2,19.2c-10.6,0-19.2-8.6-19.2-19.2c0-10.6,8.6-19.2,19.2-19.2
	C61,18.4,69.6,27,69.6,37.6z"/>
<path class="st6" d="M65.6,37.6c0,8.4-6.8,15.2-15.2,15.2c-8.4,0-15.2-6.8-15.2-15.2c0-8.4,6.8-15.2,15.2-15.2
	C58.8,22.4,65.6,29.2,65.6,37.6z"/>
<path class="st7" d="M50.4,22.4c-8.4,0-15.2,6.8-15.2,15.2c0,4.4,1.9,8.3,4.8,11.1l21.5-21.5C58.7,24.3,54.8,22.4,50.4,22.4z"/>
<path class="st5" d="M51.8,38.5v4c1.4-0.2,2.2-0.8,2.2-1.9C53.9,39.6,53.4,39,51.8,38.5z M50,35.5v-3.9c-1.4,0.1-2.1,0.9-2.1,1.8
	C47.9,34.4,48.4,34.9,50,35.5z M50.9,28c0.5,0,0.9,0.4,0.9,0.9v0.5c1.3,0.2,2.4,0.6,3.4,1.2c0.3,0.2,0.7,0.5,0.7,1
	c0,0.7-0.5,1.2-1.2,1.2c-0.2,0-0.4-0.1-0.7-0.2c-0.8-0.5-1.5-0.8-2.2-1v4.2c3.3,0.8,4.7,2.2,4.7,4.5c0,2.4-1.9,4-4.6,4.2V46
	c0,0.5-0.4,0.9-0.9,0.9c-0.5,0-1-0.4-1-0.9v-1.4c-1.6-0.2-3.1-0.8-4.5-1.7c-0.4-0.2-0.6-0.6-0.6-1c0-0.7,0.5-1.2,1.2-1.2
	c0.3,0,0.5,0.1,0.7,0.2c1,0.7,2,1.2,3.2,1.5v-4.3c-3.2-0.8-4.7-2-4.7-4.5c0-2.3,1.9-3.9,4.6-4.2V29C50,28.4,50.4,28,50.9,28z"/>
</svg>
