<?xml version="1.0" encoding="utf-8"?>
<!-- Generator: Adobe Illustrator 22.1.0, SVG Export Plug-In . SVG Version: 6.00 Build 0)  -->
<svg version="1.1" id="Layer_1" xmlns="http://www.w3.org/2000/svg" xmlns:xlink="http://www.w3.org/1999/xlink" x="0px" y="0px"
	 viewBox="0 0 88 88" style="enable-background:new 0 0 88 88;" xml:space="preserve">
<style type="text/css">
	.st0{fill:#919191;}
	.st1{fill:#626262;}
	.st2{fill:#878787;}
	.st3{fill:#FFFFFF;}
</style>
<circle class="st0" cx="44" cy="44" r="44"/>
<path class="st1" d="M44,25.9C38,15.2,20,19,20,38.1c0.4,17.4,24,30.7,24,30.7s23.6-13.2,24-30.7C68,19,50,15.2,44,25.9z"/>
<path class="st2" d="M44,25.9C38,15.2,20,19,20,38.1c0.4,17.4,23.8,30.6,24,30.6V25.9z"/>
<path class="st3" d="M40.8,54.4c-0.5,0-1-0.3-1.3-0.7l-6.8-10.3l-4.2,4.8c-0.3,0.3-0.7,0.5-1.2,0.5h-8.8v-3.2h8.1l5.1-5.9
	c0.3-0.4,0.8-0.6,1.3-0.5c0.5,0,1,0.3,1.2,0.7l6.2,9.3l5.3-15.4c0.2-0.6,0.8-1.1,1.5-1.1c0.7,0,1.3,0.4,1.5,1L55,49.9l3.9-3.9
	c0.3-0.3,0.7-0.5,1.1-0.5h9.6v3.2h-8.9l-5.1,5.1c-0.4,0.4-0.9,0.5-1.5,0.4c-0.5-0.1-1-0.5-1.2-1L47.3,39l-5,14.3
	C42.1,54,41.5,54.4,40.8,54.4z"/>
</svg>
