<?xml version="1.0" encoding="utf-8"?>
<!-- Generator: Adobe Illustrator 22.1.0, SVG Export Plug-In . SVG Version: 6.00 Build 0)  -->
<svg version="1.1" id="Layer_1" xmlns="http://www.w3.org/2000/svg" xmlns:xlink="http://www.w3.org/1999/xlink" x="0px" y="0px"
	 viewBox="0 0 88 88" style="enable-background:new 0 0 88 88;" xml:space="preserve">
<style type="text/css">
	.st0{fill:#25B7D3;}
	.st1{fill:#47C4B7;}
	.st2{fill:#BF8662;}
	.st3{fill:#AF7653;}
	.st4{fill:#C2FCF5;}
	.st5{fill:#FFFFFF;}
	.st6{fill:#9CE5F4;}
	.st7{fill:#DF2C2C;}
	.st8{fill:#FA5655;}
	.st9{fill:#0484AB;}
	.st10{fill:#6FDAF1;}
	.st11{fill:#CC9978;}
	.st12{fill:#84462D;}
	.st13{fill:#3E3E3F;}
	.st14{fill:none;stroke:#000000;stroke-width:0.3;}
</style>
<circle class="st0" cx="44" cy="44" r="44"/>
<path class="st1" d="M66.7,63.7c-0.7-1.8-2.2-3.3-4.1-3.8L52,57.6H36l-10.6,2.3c-1.9,0.6-3.4,2-4.1,3.8l-2.9,5.9h51.2L66.7,63.7z"/>
<path class="st2" d="M36,50.7v6.9l8,8v-8.8C41.4,55.9,38.3,54.3,36,50.7z"/>
<path class="st3" d="M44,56.8v8.8l8-8v-6.9C49.7,54.3,46.6,55.9,44,56.8z"/>
<polygon class="st4" points="34,58 44,68 44,65.6 36,57.6 "/>
<polygon class="st4" points="54,58 44,68 44,65.6 52,57.6 "/>
<path class="st5" d="M63.2,68c0,0.4-0.4,0.8-0.8,0.8h-8.8c-0.4,0-0.8-0.4-0.8-0.8v-5.6c0-0.4,0.4-0.8,0.8-0.8h8.8
	c0.4,0,0.8,0.4,0.8,0.8V68z"/>
<rect x="53.6" y="64" class="st6" width="3.2" height="4"/>
<path class="st4" d="M62.4,61.6h-3.2v-0.4c0-0.7-0.5-1.2-1.2-1.2s-1.2,0.5-1.2,1.2v0.4h-3.2c-0.4,0-0.8,0.4-0.8,0.8v0.8h10.4v-0.8
	C63.2,62,62.8,61.6,62.4,61.6z"/>
<rect x="25.6" y="65.6" class="st4" width="8.8" height="1.6"/>
<rect x="27.2" y="63.2" class="st7" width="2.4" height="2.4"/>
<path class="st8" d="M29.6,63.2h-2.4v-0.4c0-0.7,0.5-1.2,1.2-1.2c0.7,0,1.2,0.5,1.2,1.2V63.2z"/>
<rect x="30.4" y="64" class="st9" width="2.4" height="1.6"/>
<path class="st10" d="M32.8,64h-2.4v-0.4c0-0.7,0.5-1.2,1.2-1.2c0.7,0,1.2,0.5,1.2,1.2V64z"/>
<path class="st2" d="M56,37.6h-0.8c-0.1,0-0.8-8.8-5.6-8.8c-2.4,0-3.6,0.8-5.6,0.8s-3.2-0.8-5.6-0.8c-4.8,0-5.5,8.8-5.6,8.8H32
	c-0.8,0-1.6,0.9-1.6,1.8c0,2.5,0.7,5.7,3.3,6.2c2,7.3,6.6,10,10.3,11.3c3.7-1.2,8.3-4,10.3-11.3c2.7-0.5,3.3-3.7,3.3-6.2
	C57.6,38.5,56.8,37.6,56,37.6z"/>
<path class="st11" d="M32.8,37.6H32c-0.8,0-1.6,0.9-1.6,1.8c0,2.5,0.7,5.7,3.3,6.2c2,7.3,6.6,10,10.3,11.3V29.6
	c-2,0-3.2-0.8-5.6-0.8C33.6,28.8,32.9,37.6,32.8,37.6z"/>
<path class="st12" d="M40,48h8c0,0,0,2.4-4,2.4S40,48,40,48z"/>
<path class="st13" d="M41.6,39.2c0-0.9-0.7-1.6-1.6-1.6h0c0,0,0,0,0,0c0,0.9-0.7,1.6-1.6,1.6c0,0.9,0.7,1.6,1.6,1.6
	C40.9,40.8,41.6,40.1,41.6,39.2z"/>
<path class="st13" d="M49.6,39.2c0-0.9-0.7-1.6-1.6-1.6h0c0,0,0,0,0,0c0,0.9-0.7,1.6-1.6,1.6c0,0.9,0.7,1.6,1.6,1.6
	C48.9,40.8,49.6,40.1,49.6,39.2z"/>
<path class="st13" d="M48.7,24.1c0.1-0.3,0.1-0.6,0.1-0.9c0-2.6-2.1-4.8-4.8-4.8s-4.8,2.2-4.8,4.8c0,0.3,0,0.6,0.1,0.9
	C32,26.3,32,30.6,32,37.6h0.8c0.1,0,0.8-8.8,5.6-8.8c2.4,0,3.6,0.8,5.6,0.8s3.2-0.8,5.6-0.8c4.8,0,5.5,8.8,5.6,8.8H56
	C56,30.6,56,26.3,48.7,24.1z"/>
<g>
	<line class="st14" x1="0" y1="-54" x2="0" y2="-18"/>
	<line class="st14" x1="-54" y1="0" x2="-18" y2="0"/>
	<line class="st14" x1="-54" y1="88" x2="-18" y2="88"/>
	<line class="st14" x1="0" y1="142" x2="0" y2="106"/>
	<line class="st14" x1="88" y1="-54" x2="88" y2="-18"/>
	<line class="st14" x1="142" y1="0" x2="106" y2="0"/>
	<line class="st14" x1="142" y1="88" x2="106" y2="88"/>
	<line class="st14" x1="88" y1="142" x2="88" y2="106"/>
</g>
</svg>
